<svg xmlns="http://www.w3.org/2000/svg" xmlns:xlink="http://www.w3.org/1999/xlink" width="561" zoomAndPan="magnify" viewBox="0 0 420.75 326.250004" height="435" preserveAspectRatio="xMidYMid meet" version="1.0"><defs><clipPath id="042cf21b28"><path d="M 25.691406 41.878906 L 394.8125 41.878906 L 394.8125 283.71875 L 25.691406 283.71875 Z M 25.691406 41.878906 " clip-rule="nonzero"/></clipPath></defs><g clip-path="url(#042cf21b28)"><path fill="#f2a536" d="M 285.457031 42.492188 L 285.046875 41.875 L 284.128906 42.492188 L 283.019531 42.492188 L 283.019531 43.226562 L 210.878906 91.335938 L 210.878906 68.902344 L 209.609375 68.902344 L 209.609375 92.183594 L 165.144531 121.835938 L 164.035156 121.835938 L 164.035156 122.574219 L 163.425781 122.984375 L 164.035156 123.902344 L 164.035156 210.800781 L 105.0625 170.074219 L 105.0625 122.789062 L 103.796875 122.789062 L 103.796875 169.195312 L 69.257812 145.34375 L 65.652344 150.566406 L 84.714844 163.730469 L 84.714844 280.527344 L 25.710938 280.527344 L 25.710938 283.703125 L 394.773438 283.703125 L 394.773438 280.527344 L 365.515625 280.527344 L 365.515625 165.851562 L 388.332031 150.640625 L 384.8125 145.355469 L 304.839844 198.6875 L 304.839844 185.128906 L 384.8125 131.800781 L 384.109375 130.742188 L 304.839844 183.601562 L 304.839844 162.460938 L 303.574219 162.460938 L 303.574219 184.449219 L 286.195312 196.039062 L 286.195312 44.925781 L 286.808594 44.515625 L 286.195312 43.597656 L 286.195312 42.492188 Z M 304.839844 206.316406 L 304.839844 280.527344 L 362.34375 280.527344 L 362.34375 167.96875 Z M 286.195312 218.75 L 286.195312 280.527344 L 303.574219 280.527344 L 303.574219 207.164062 Z M 248.117188 244.140625 L 248.117188 280.527344 L 283.019531 280.527344 L 283.019531 220.867188 Z M 283.019531 213.238281 L 283.019531 199.679688 L 210.878906 247.785156 L 210.878906 280.527344 L 241.773438 280.527344 L 241.773438 240.742188 Z M 161.785156 280.527344 L 209.609375 280.527344 L 209.609375 248.632812 Z M 105.0625 177.789062 L 105.0625 280.527344 L 159.496094 280.527344 L 209.609375 247.109375 L 209.609375 96 L 167.210938 124.273438 L 167.210938 212.996094 L 179.953125 221.796875 L 176.347656 227.019531 Z M 87.886719 280.527344 L 103.796875 280.527344 L 103.796875 176.910156 L 87.886719 165.921875 Z M 210.878906 95.152344 L 210.878906 246.261719 L 283.019531 198.152344 L 283.019531 47.042969 Z M 286.195312 197.5625 L 286.195312 211.121094 L 303.574219 199.53125 L 303.574219 185.976562 Z M 286.195312 197.5625 " fill-opacity="1" fill-rule="evenodd"/></g></svg>