<svg xmlns="http://www.w3.org/2000/svg" xmlns:xlink="http://www.w3.org/1999/xlink" width="755" zoomAndPan="magnify" viewBox="0 0 567 567.000005" height="755" preserveAspectRatio="xMidYMid meet" version="1.0"><defs><clipPath id="d9bb4706a0"><path d="M 12.136719 134.347656 L 555 134.347656 L 555 347.398438 L 12.136719 347.398438 Z M 12.136719 134.347656 " clip-rule="nonzero"/></clipPath><clipPath id="97481187b7"><path d="M 12.136719 341.277344 L 201.59375 341.277344 L 201.59375 344.226562 L 198.644531 344.226562 L 198.644531 274.144531 L 220.453125 252.335938 L 257.066406 252.335938 L 257.066406 347.351562 L 231.273438 347.351562 L 231.273438 134.347656 L 293.234375 134.347656 L 293.234375 347.351562 L 265.164062 347.351562 L 265.164062 202.914062 L 289.996094 180.953125 L 312.070312 203.027344 L 312.070312 344.390625 L 309.121094 344.390625 L 309.121094 341.4375 L 353.050781 341.449219 L 353.050781 344.402344 L 350.097656 344.402344 L 350.097656 286.136719 L 390.308594 286.136719 L 390.308594 344.308594 L 387.355469 344.308594 L 387.355469 341.355469 L 554.84375 341.355469 L 554.84375 347.261719 L 384.40625 347.261719 L 384.40625 289.085938 L 387.355469 289.085938 L 387.355469 292.039062 L 353.050781 292.039062 L 353.050781 289.085938 L 356 289.085938 L 356 347.351562 L 306.167969 347.339844 L 306.167969 204.234375 L 309.121094 204.234375 L 307.027344 206.324219 L 287.78125 187.085938 L 289.871094 184.996094 L 291.824219 187.203125 L 270.070312 206.453125 L 268.117188 204.246094 L 271.070312 204.246094 L 271.070312 344.402344 L 268.117188 344.402344 L 268.117188 341.449219 L 290.296875 341.449219 L 290.296875 344.402344 L 287.34375 344.402344 L 287.34375 137.300781 L 290.296875 137.300781 L 290.296875 140.25 L 234.222656 140.25 L 234.222656 137.300781 L 237.175781 137.300781 L 237.175781 344.402344 L 234.222656 344.402344 L 234.222656 341.449219 L 254.105469 341.449219 L 254.105469 344.402344 L 251.152344 344.402344 L 251.152344 255.285156 L 254.105469 255.285156 L 254.105469 258.238281 L 221.683594 258.238281 L 221.683594 255.285156 L 223.773438 257.378906 L 203.683594 277.464844 L 201.59375 275.375 L 204.546875 275.375 L 204.546875 347.191406 L 12.136719 347.191406 L 12.136719 341.277344 " clip-rule="nonzero"/></clipPath><clipPath id="c2ac14fc9b"><path d="M 482 350 L 566.5 350 L 566.5 442 L 482 442 Z M 482 350 " clip-rule="nonzero"/></clipPath><clipPath id="1bb8c59999"><path d="M 9.238281 369.414062 L 74.707031 369.414062 L 74.707031 426 L 9.238281 426 Z M 9.238281 369.414062 " clip-rule="nonzero"/></clipPath><clipPath id="efce7d9cf3"><path d="M 41.132812 423.085938 L 41.203125 423.683594 L 41.71875 424.785156 L 41.71875 423.683594 L 42.457031 423.53125 L 43.558594 423.097656 L 42.457031 423.097656 L 42.457031 372.953125 L 71.558594 372.953125 L 71.558594 374.054688 L 71.558594 372.953125 L 72.15625 372.882812 L 73.257812 372.367188 L 72.15625 372.367188 L 72.007812 371.632812 L 71.570312 370.527344 L 71.570312 371.632812 L 12.054688 371.632812 L 11.457031 371.699219 L 10.355469 372.21875 L 11.457031 372.21875 L 11.605469 372.953125 L 12.042969 374.054688 L 12.042969 372.953125 L 41.132812 372.953125 L 41.132812 423.085938 L 40.03125 423.085938 L 41.132812 423.085938 M 38.917969 423.085938 L 38.917969 374.066406 L 40.019531 374.066406 L 40.019531 375.167969 L 12.054688 375.167969 C 10.226562 375.167969 9.238281 373.972656 9.238281 372.226562 C 9.238281 370.484375 10.308594 369.414062 12.054688 369.414062 L 71.558594 369.414062 C 73.382812 369.414062 74.359375 370.609375 74.359375 372.367188 C 74.359375 374.125 73.304688 375.167969 71.558594 375.167969 L 43.570312 375.167969 L 43.570312 374.066406 L 44.671875 374.066406 L 44.671875 423.085938 C 44.671875 424.910156 43.476562 425.886719 41.71875 425.886719 C 39.960938 425.886719 38.917969 424.832031 38.917969 423.085938 " clip-rule="nonzero"/></clipPath><clipPath id="10571cdecf"><path d="M 81.023438 369.414062 L 161.992188 369.414062 L 161.992188 426 L 81.023438 426 Z M 81.023438 369.414062 " clip-rule="nonzero"/></clipPath><clipPath id="eb68bd8bc4"><path d="M 83.789062 381.644531 L 83.789062 413.734375 L 82.6875 413.734375 L 83.789062 413.734375 L 83.847656 414.09375 L 83.179688 415.011719 L 83.960938 414.230469 L 93.242188 423.578125 L 92.460938 424.359375 L 93.242188 423.578125 L 93.335938 423.683594 L 93.738281 424.785156 L 93.738281 423.683594 L 148.855469 423.683594 L 148.855469 424.785156 L 148.855469 423.683594 L 149.1875 423.636719 L 150.058594 424.359375 L 149.289062 423.554688 L 159.097656 414.171875 C 159.226562 414.058594 159.28125 413.941406 159.28125 413.734375 L 160.386719 413.734375 L 159.28125 413.734375 L 159.28125 381.644531 L 160.386719 381.644531 L 159.28125 381.644531 L 159.246094 381.394531 L 159.890625 380.453125 L 159.097656 381.222656 L 149.921875 371.828125 C 149.808594 371.699219 149.691406 371.644531 149.484375 371.644531 L 93.804688 371.644531 L 93.414062 371.710938 L 92.53125 371.023438 L 93.3125 371.804688 L 83.960938 381.152344 C 83.859375 381.253906 83.789062 381.382812 83.789062 381.644531 L 82.6875 381.644531 L 83.789062 381.644531 M 81.574219 381.644531 L 81.828125 380.152344 L 83.171875 380.371094 L 82.390625 379.589844 L 91.738281 370.242188 C 92.300781 369.679688 93.011719 369.425781 93.792969 369.425781 L 149.472656 369.425781 C 150.300781 369.425781 151.035156 369.746094 151.585938 370.367188 L 150.75 371.089844 L 151.542969 370.320312 L 160.71875 379.714844 C 161.1875 380.257812 161.488281 380.910156 161.488281 381.644531 L 161.488281 413.734375 C 161.488281 414.5625 161.164062 415.296875 160.546875 415.847656 L 159.820312 415.011719 L 160.589844 415.816406 L 150.714844 425.253906 C 150.164062 425.667969 149.542969 425.898438 148.84375 425.898438 L 93.738281 425.898438 C 93 425.898438 92.242188 425.714844 91.679688 425.152344 L 82.355469 415.746094 C 81.859375 415.183594 81.585938 414.492188 81.585938 413.734375 L 81.585938 381.644531 L 81.574219 381.644531 M 85.445312 381.554688 L 94.035156 372.964844 L 149.1875 372.964844 L 157.960938 381.945312 L 157.960938 413.425781 L 148.636719 422.351562 L 93.898438 422.351562 L 85.121094 413.507812 L 85.121094 381.875 L 85.445312 381.554688 M 87.007812 383.117188 L 86.226562 382.335938 L 87.328125 382.335938 L 87.328125 413.046875 L 86.226562 413.046875 L 87.007812 412.265625 L 95.136719 420.464844 L 94.355469 421.246094 L 94.355469 420.144531 L 148.1875 420.144531 L 148.1875 421.246094 L 147.417969 420.441406 L 156.089844 412.152344 L 156.859375 412.953125 L 155.757812 412.953125 L 155.757812 382.394531 L 156.859375 382.394531 L 156.066406 383.164062 L 147.921875 374.835938 L 148.714844 374.066406 L 148.714844 375.167969 L 94.496094 375.167969 L 94.496094 374.066406 L 95.277344 374.847656 L 87.007812 383.117188 " clip-rule="nonzero"/></clipPath><clipPath id="6128895e73"><path d="M 166.585938 369.414062 L 258.46875 369.414062 L 258.46875 426 L 166.585938 426 Z M 166.585938 369.414062 " clip-rule="nonzero"/></clipPath><clipPath id="569ba2814e"><path d="M 169.894531 371.769531 L 169.160156 371.917969 L 168.058594 372.355469 L 169.160156 372.355469 L 169.160156 423.003906 L 168.058594 423.003906 L 169.160156 423.003906 L 169.21875 423.324219 L 168.621094 424.269531 L 169.34375 423.429688 L 169.710938 423.648438 L 169.824219 424.75 L 169.824219 423.648438 L 170.308594 423.566406 L 171.101562 424.347656 L 170.320312 423.566406 L 212.023438 381.863281 L 213.367188 381.863281 L 254.988281 423.566406 L 254.207031 424.347656 L 254.90625 423.488281 L 255.171875 423.648438 L 255.414062 424.75 L 255.414062 423.648438 L 255.769531 423.589844 L 256.6875 424.257812 L 255.953125 423.429688 L 256.148438 423.199219 L 257.25 422.992188 L 256.148438 422.992188 L 256.148438 372.355469 L 257.25 372.355469 L 256.148438 372.355469 L 256.078125 371.769531 L 255.550781 370.667969 L 255.550781 371.769531 L 254.816406 371.917969 L 253.714844 372.355469 L 254.816406 372.355469 L 254.816406 421.535156 L 214.03125 380.671875 C 214.007812 380.648438 213.953125 380.554688 213.652344 380.554688 L 211.710938 380.554688 L 211.390625 380.613281 L 211.277344 380.75 L 170.492188 421.535156 L 170.492188 372.367188 L 171.59375 372.367188 L 170.492188 372.367188 L 170.421875 371.769531 L 169.90625 370.667969 L 169.90625 371.769531 M 169.90625 369.550781 C 171.652344 369.550781 172.707031 370.621094 172.707031 372.367188 L 172.707031 418.859375 L 171.605469 418.859375 L 170.824219 418.078125 L 209.691406 379.210938 L 210.472656 379.992188 L 209.644531 379.257812 L 210.917969 378.351562 L 213.664062 378.351562 C 214.480469 378.351562 215.261719 378.625 215.789062 379.316406 L 214.917969 379.992188 L 215.699219 379.210938 L 254.496094 418.078125 L 253.714844 418.859375 L 252.609375 418.859375 L 252.609375 372.367188 C 252.609375 370.539062 253.804688 369.5625 255.5625 369.5625 C 257.308594 369.5625 258.363281 370.621094 258.363281 372.367188 L 258.363281 423.015625 C 258.363281 423.84375 258.042969 424.578125 257.421875 425.117188 L 256.183594 425.886719 L 255.425781 425.886719 C 254.722656 425.886719 254.070312 425.679688 253.519531 425.234375 L 253.472656 425.199219 L 212.125 383.78125 L 212.90625 383 L 212.90625 384.105469 L 212.480469 384.105469 L 212.480469 383 L 213.261719 383.78125 L 171.8125 425.234375 C 171.25 425.691406 170.5625 425.886719 169.835938 425.886719 L 168.449219 425.589844 L 167.90625 425.117188 C 167.277344 424.566406 166.964844 423.832031 166.964844 423.015625 L 166.964844 372.355469 C 166.964844 370.527344 168.160156 369.550781 169.917969 369.550781 L 169.90625 369.550781 " clip-rule="nonzero"/></clipPath><clipPath id="b32ed7f4eb"><path d="M 265 369.414062 L 321 369.414062 L 321 426 L 265 426 Z M 265 369.414062 " clip-rule="nonzero"/></clipPath><clipPath id="06cb86c3a0"><path d="M 267.875 423.683594 L 268.609375 423.53125 L 269.710938 423.085938 L 268.609375 423.085938 L 268.609375 373.847656 L 317.089844 422.328125 L 316.308594 423.109375 L 317.089844 422.316406 L 317.296875 422.464844 L 317.46875 423.566406 L 317.46875 422.476562 L 317.882812 422.371094 L 317.894531 422.351562 L 318.121094 421.84375 L 319.226562 421.742188 L 318.121094 421.742188 L 318.078125 421.441406 L 318.742188 420.535156 L 317.960938 421.316406 L 268.4375 371.804688 L 269.21875 371.023438 L 268.4375 371.804688 L 268.195312 371.632812 L 268.011719 370.527344 L 268.011719 371.632812 L 267.277344 371.769531 L 266.175781 372.296875 L 267.277344 372.296875 L 267.277344 423.085938 L 266.175781 423.085938 L 267.277344 423.085938 L 267.347656 423.683594 L 267.863281 424.785156 L 267.863281 423.683594 M 267.863281 425.898438 C 266.117188 425.898438 265.0625 424.84375 265.0625 423.097656 L 265.0625 372.296875 C 265.0625 370.460938 266.210938 369.414062 268.011719 369.414062 L 269.460938 369.691406 L 319.523438 419.753906 C 320.0625 420.292969 320.339844 420.984375 320.339844 421.742188 L 320.097656 422.992188 L 318.824219 422.933594 L 319.753906 423.53125 L 318.351562 424.679688 L 317.457031 424.679688 C 316.722656 424.679688 316.054688 424.417969 315.527344 423.890625 L 268.929688 377.292969 L 269.710938 376.511719 L 270.816406 376.511719 L 270.816406 423.085938 C 270.816406 424.910156 269.621094 425.898438 267.863281 425.898438 M 318.167969 371.632812 L 317.433594 371.78125 L 316.332031 372.226562 L 317.433594 372.226562 L 317.433594 423.085938 L 316.332031 423.085938 L 317.433594 423.085938 L 317.503906 423.683594 L 318.019531 424.785156 L 318.019531 423.683594 L 318.753906 423.53125 L 319.855469 423.085938 L 318.753906 423.085938 L 318.753906 372.226562 L 319.855469 372.226562 L 318.753906 372.226562 L 318.683594 371.632812 L 318.167969 370.527344 L 318.167969 371.632812 M 318.167969 369.414062 C 319.914062 369.414062 320.972656 370.484375 320.972656 372.226562 L 320.972656 423.085938 C 320.972656 424.910156 319.777344 425.898438 318.019531 425.898438 C 316.261719 425.898438 315.207031 424.84375 315.207031 423.085938 L 315.207031 372.226562 C 315.207031 370.402344 316.398438 369.414062 318.15625 369.414062 L 318.167969 369.414062 " clip-rule="nonzero"/></clipPath><clipPath id="79b4160357"><path d="M 327.378906 369.414062 L 407.777344 369.414062 L 407.777344 426 L 327.378906 426 Z M 327.378906 369.414062 " clip-rule="nonzero"/></clipPath><clipPath id="e03e099b62"><path d="M 404.882812 412.507812 L 404.144531 412.667969 L 403.042969 413.09375 L 404.144531 413.09375 L 404.144531 417.078125 L 398.585938 422.351562 L 340.21875 422.351562 L 331.296875 413.230469 L 331.296875 381.808594 L 340.207031 372.953125 L 392.867188 372.953125 L 398.1875 378.5 L 398.1875 381.632812 L 397.082031 381.632812 L 398.1875 381.632812 L 398.253906 382.230469 L 398.769531 383.335938 L 398.769531 382.230469 L 399.507812 382.082031 L 400.609375 381.644531 L 399.507812 381.644531 L 399.507812 378.246094 L 400.609375 378.246094 L 399.507812 378.246094 L 399.472656 377.984375 L 400.113281 377.039062 L 399.324219 377.808594 L 393.546875 371.816406 C 393.429688 371.6875 393.316406 371.632812 393.097656 371.632812 L 339.988281 371.632812 L 339.632812 371.6875 L 338.714844 371.023438 L 339.496094 371.804688 L 330.078125 381.140625 C 330.066406 381.152344 329.976562 381.222656 329.976562 381.578125 L 328.871094 381.578125 L 329.976562 381.578125 L 329.976562 413.527344 L 328.871094 413.527344 L 329.976562 413.527344 L 330.007812 413.792969 L 329.367188 414.734375 L 330.160156 413.964844 L 339.507812 423.53125 L 338.714844 424.300781 L 339.496094 423.519531 L 339.726562 423.695312 L 339.988281 424.796875 L 339.988281 423.695312 L 398.863281 423.695312 L 398.863281 424.796875 L 398.863281 423.695312 L 399.128906 423.660156 L 400.070312 424.3125 L 399.300781 423.507812 L 405.296875 417.765625 C 405.421875 417.652344 405.480469 417.550781 405.480469 417.332031 L 406.582031 417.332031 L 405.480469 417.332031 L 405.480469 413.09375 L 406.582031 413.09375 L 405.480469 413.09375 L 405.410156 412.507812 L 404.882812 411.40625 L 404.882812 412.507812 M 404.882812 410.289062 C 406.628906 410.289062 407.683594 411.347656 407.683594 413.09375 L 407.683594 417.320312 C 407.683594 418.144531 407.363281 418.882812 406.742188 419.421875 L 406.019531 418.582031 L 406.789062 419.386719 L 400.792969 425.128906 C 400.253906 425.601562 399.597656 425.898438 398.863281 425.898438 L 339.988281 425.898438 C 339.210938 425.898438 338.496094 425.644531 337.933594 425.082031 L 328.527344 415.457031 C 328.058594 414.917969 327.757812 414.265625 327.757812 413.527344 L 327.757812 381.578125 C 327.757812 380.796875 327.988281 380.015625 328.644531 379.464844 L 329.367188 380.300781 L 328.585938 379.519531 L 337.992188 370.195312 C 338.554688 369.703125 339.230469 369.425781 339.988281 369.425781 L 393.121094 369.425781 C 393.949219 369.425781 394.683594 369.746094 395.234375 370.367188 L 394.394531 371.089844 L 395.1875 370.320312 L 400.964844 376.316406 C 401.4375 376.855469 401.734375 377.511719 401.734375 378.246094 L 401.734375 381.644531 C 401.734375 383.472656 400.539062 384.460938 398.78125 384.460938 C 397.027344 384.460938 395.980469 383.390625 395.980469 381.644531 L 395.980469 378.945312 L 397.082031 378.945312 L 396.277344 379.714844 L 391.59375 374.824219 L 392.398438 374.054688 L 392.398438 375.15625 L 340.679688 375.15625 L 340.679688 374.066406 L 341.460938 374.847656 L 333.191406 383.046875 L 332.410156 382.265625 L 333.511719 382.265625 L 333.511719 412.78125 L 332.410156 412.78125 L 333.203125 412.011719 L 341.484375 420.476562 L 340.691406 421.246094 L 340.691406 420.144531 L 398.152344 420.144531 L 398.152344 421.246094 L 397.394531 420.441406 L 402.285156 415.804688 L 403.042969 416.605469 L 401.941406 416.605469 L 401.941406 413.09375 C 401.941406 411.265625 403.148438 410.300781 404.894531 410.300781 L 404.882812 410.289062 " clip-rule="nonzero"/></clipPath><clipPath id="104f40c513"><path d="M 414 369.414062 L 494 369.414062 L 494 426 L 414 426 Z M 414 369.414062 " clip-rule="nonzero"/></clipPath><clipPath id="38242f6b8b"><path d="M 416.261719 381.644531 L 416.261719 413.734375 L 415.160156 413.734375 L 416.261719 413.734375 L 416.320312 414.09375 L 415.65625 415.011719 L 416.4375 414.230469 L 425.714844 423.578125 L 424.933594 424.359375 L 425.714844 423.578125 L 425.808594 423.683594 L 426.210938 424.785156 L 426.210938 423.683594 L 481.328125 423.683594 L 481.328125 424.785156 L 481.328125 423.683594 L 481.660156 423.636719 L 482.53125 424.359375 L 481.761719 423.554688 L 491.570312 414.171875 C 491.699219 414.058594 491.753906 413.941406 491.753906 413.734375 L 492.859375 413.734375 L 491.753906 413.734375 L 491.753906 381.644531 L 492.859375 381.644531 L 491.753906 381.644531 L 491.722656 381.394531 L 492.363281 380.453125 L 491.570312 381.222656 L 482.394531 371.828125 C 482.28125 371.699219 482.164062 371.644531 481.957031 371.644531 L 426.277344 371.644531 L 425.886719 371.710938 L 425.003906 371.023438 L 425.785156 371.804688 L 416.4375 381.152344 C 416.332031 381.253906 416.261719 381.382812 416.261719 381.644531 L 415.160156 381.644531 L 416.261719 381.644531 M 414.046875 381.644531 L 414.300781 380.152344 L 415.644531 380.371094 L 414.863281 379.589844 L 424.210938 370.242188 C 424.773438 369.679688 425.484375 369.425781 426.265625 369.425781 L 481.96875 369.425781 C 482.796875 369.425781 483.53125 369.746094 484.082031 370.367188 L 483.246094 371.089844 L 484.039062 370.320312 L 493.214844 379.714844 C 493.683594 380.257812 493.984375 380.910156 493.984375 381.644531 L 493.984375 413.734375 C 493.984375 414.5625 493.660156 415.296875 493.042969 415.847656 L 492.316406 415.011719 L 493.085938 415.816406 L 483.210938 425.253906 C 482.660156 425.667969 482.027344 425.898438 481.339844 425.898438 L 426.210938 425.898438 C 425.472656 425.898438 424.714844 425.714844 424.152344 425.152344 L 414.828125 415.746094 C 414.332031 415.183594 414.058594 414.492188 414.058594 413.734375 L 414.058594 381.644531 L 414.046875 381.644531 M 417.917969 381.554688 L 426.507812 372.964844 L 481.660156 372.964844 L 490.433594 381.945312 L 490.433594 413.425781 L 481.109375 422.351562 L 426.371094 422.351562 L 417.59375 413.507812 L 417.59375 381.875 L 417.917969 381.554688 M 419.480469 383.117188 L 418.699219 382.335938 L 419.800781 382.335938 L 419.800781 413.046875 L 418.699219 413.046875 L 419.480469 412.265625 L 427.609375 420.464844 L 426.828125 421.246094 L 426.828125 420.144531 L 480.660156 420.144531 L 480.660156 421.246094 L 479.890625 420.441406 L 488.5625 412.152344 L 489.332031 412.953125 L 488.230469 412.953125 L 488.230469 382.394531 L 489.332031 382.394531 L 488.539062 383.164062 L 480.398438 374.835938 L 481.1875 374.066406 L 481.1875 375.167969 L 426.96875 375.167969 L 426.96875 374.066406 L 427.75 374.847656 L 419.480469 383.117188 " clip-rule="nonzero"/></clipPath><clipPath id="31b62c6869"><path d="M 501.378906 369.414062 L 558 369.414062 L 558 426 L 501.378906 426 Z M 501.378906 369.414062 " clip-rule="nonzero"/></clipPath><clipPath id="29b6526209"><path d="M 504.640625 423.683594 L 505.375 423.53125 L 506.480469 423.085938 L 505.375 423.085938 L 505.375 373.847656 L 553.855469 422.328125 L 553.074219 423.109375 L 553.855469 422.316406 L 554.0625 422.464844 L 554.234375 423.566406 L 554.234375 422.476562 L 554.648438 422.371094 L 554.660156 422.351562 L 554.890625 421.84375 L 555.992188 421.742188 L 554.890625 421.742188 L 554.84375 421.441406 L 505.203125 371.804688 L 505.984375 371.023438 L 505.203125 371.804688 L 504.964844 371.632812 L 504.78125 370.527344 L 504.78125 371.632812 L 504.042969 371.769531 L 502.941406 372.296875 L 504.042969 372.296875 L 504.042969 423.085938 L 502.941406 423.085938 L 504.042969 423.085938 L 504.113281 423.683594 L 504.628906 424.785156 L 504.628906 423.683594 M 504.628906 425.898438 C 502.882812 425.898438 501.828125 424.84375 501.828125 423.097656 L 501.828125 372.296875 C 501.828125 370.460938 502.976562 369.414062 504.78125 369.414062 L 506.226562 369.691406 L 556.289062 419.753906 L 555.507812 420.535156 L 556.289062 419.753906 L 557.105469 420.984375 L 557.105469 421.742188 C 557.105469 422.394531 556.863281 422.992188 556.519531 423.542969 L 555.589844 422.945312 L 556.519531 423.542969 L 555.121094 424.691406 L 554.222656 424.691406 C 553.488281 424.691406 552.820312 424.429688 552.292969 423.898438 L 505.699219 377.304688 L 506.480469 376.523438 L 507.582031 376.523438 L 507.582031 423.085938 C 507.582031 424.910156 506.386719 425.898438 504.628906 425.898438 M 554.933594 371.632812 L 554.199219 371.78125 L 553.097656 372.226562 L 554.199219 372.226562 L 554.199219 423.085938 L 553.097656 423.085938 L 554.199219 423.085938 L 554.269531 423.683594 L 554.785156 424.785156 L 554.785156 423.683594 L 555.519531 423.53125 L 556.625 423.085938 L 555.519531 423.085938 L 555.519531 372.226562 L 556.625 372.226562 L 555.519531 372.226562 L 555.453125 371.632812 L 554.933594 370.527344 L 554.933594 371.632812 M 554.933594 369.414062 C 556.679688 369.414062 557.738281 370.484375 557.738281 372.226562 L 557.738281 423.085938 C 557.738281 424.910156 556.542969 425.898438 554.785156 425.898438 C 553.027344 425.898438 551.984375 424.84375 551.984375 423.085938 L 551.984375 372.226562 C 551.984375 370.402344 553.179688 369.414062 554.933594 369.414062 " clip-rule="nonzero"/></clipPath></defs><g clip-path="url(#d9bb4706a0)"><g clip-path="url(#97481187b7)"><path fill="#ffffff" d="M 12.136719 134.347656 L 554.8125 134.347656 L 554.8125 347.398438 L 12.136719 347.398438 Z M 12.136719 134.347656 " fill-opacity="1" fill-rule="nonzero"/></g></g><path stroke-linecap="butt" transform="matrix(0.74549, 0.000000000000001005, -0.000000000000001009, 0.74868, 10.149854, 370.022314)" fill="none" stroke-linejoin="miter" d="M -0.00190069 2.500693 L 84.359548 2.500693 " stroke="#ffffff" stroke-width="5" stroke-opacity="1" stroke-miterlimit="4"/><path stroke-linecap="butt" transform="matrix(0.745488, 0, 0, 0.74868, 338.220859, 370.022314)" fill="none" stroke-linejoin="miter" d="M 0.00241039 2.500693 L 73.313212 2.500693 " stroke="#ffbd59" stroke-width="5" stroke-opacity="1" stroke-miterlimit="4"/><path stroke-linecap="butt" transform="matrix(0.748832, 0, 0, 0.74868, 424.641105, 370.022314)" fill="none" stroke-linejoin="miter" d="M -0.000641574 2.500693 L 76.994312 2.500693 " stroke="#ffbd59" stroke-width="5" stroke-opacity="1" stroke-miterlimit="4"/><path stroke-linecap="butt" transform="matrix(0.748832, 0, 0, 0.74868, 92.843644, 370.022314)" fill="none" stroke-linejoin="miter" d="M 0.000141211 2.500693 L 76.995095 2.500693 " stroke="#ffffff" stroke-width="5" stroke-opacity="1" stroke-miterlimit="4"/><path stroke-linecap="butt" transform="matrix(0.000000000000000213, 0.752712, -0.74868, 0.000000000000000212, 43.253322, 371.897024)" fill="none" stroke-linejoin="miter" d="M 0.00187798 2.498411 L 69.635506 2.498411 " stroke="#ffffff" stroke-width="5" stroke-opacity="1" stroke-miterlimit="4"/><path stroke-linecap="butt" transform="matrix(0.748832, 0, 0, 0.74868, 92.843644, 421.850713)" fill="none" stroke-linejoin="miter" d="M 0.000141211 2.500326 L 76.995095 2.500326 " stroke="#ffffff" stroke-width="5" stroke-opacity="1" stroke-miterlimit="4"/><path stroke-linecap="butt" transform="matrix(-0.00000000000000129, 0.752, -0.74868, -0.000000000000001284, 85.777446, 380.163091)" fill="none" stroke-linejoin="miter" d="M 0.00129235 2.499328 L 45.801026 2.499328 " stroke="#ffffff" stroke-width="5" stroke-opacity="1" stroke-miterlimit="4"/><path stroke-linecap="butt" transform="matrix(0.0106909, 0.752181, -0.748604, 0.01064, 160.815976, 380.148088)" fill="none" stroke-linejoin="miter" d="M 0.00146863 2.49889 L 45.795366 2.50062 " stroke="#ffffff" stroke-width="5" stroke-opacity="1" stroke-miterlimit="4"/><path stroke-linecap="butt" transform="matrix(-0.00186485, 0.744741, -0.748677, -0.0018747, 172.456656, 371.903313)" fill="none" stroke-linejoin="miter" d="M -0.000256479 2.498699 L 68.369754 2.500578 " stroke="#ffffff" stroke-width="5" stroke-opacity="1" stroke-miterlimit="4"/><path stroke-linecap="butt" transform="matrix(0.000000000000000046, 0.752712, -0.74868, 0.000000000000000046, 257.584943, 370.516238)" fill="none" stroke-linejoin="miter" d="M -0.00081494 2.497863 L 69.632813 2.497863 " stroke="#ffffff" stroke-width="5" stroke-opacity="1" stroke-miterlimit="4"/><path stroke-linecap="butt" transform="matrix(0.000000000000000046, 0.752712, -0.74868, 0.000000000000000046, 269.799826, 371.592552)" fill="none" stroke-linejoin="miter" d="M 0.00159142 2.497915 L 69.635219 2.497915 " stroke="#ffffff" stroke-width="5" stroke-opacity="1" stroke-miterlimit="4"/><path stroke-linecap="butt" transform="matrix(0.000000000000001874, 0.748515, -0.74868, 0.000000000000001874, 320.106381, 370.85709)" fill="none" stroke-linejoin="miter" d="M -0.00216603 2.500411 L 71.018681 2.500411 " stroke="#ffffff" stroke-width="5" stroke-opacity="1" stroke-miterlimit="4"/><path stroke-linecap="butt" transform="matrix(0.532015, 0.523017, -0.524863, 0.533892, 268.504842, 370.752716)" fill="none" stroke-linejoin="miter" d="M -0.00263941 2.499762 L 93.340955 2.499758 " stroke="#ffffff" stroke-width="5" stroke-opacity="1" stroke-miterlimit="4"/><path stroke-linecap="butt" transform="matrix(0.527871, 0.533504, -0.532198, 0.526579, 213.936443, 378.831931)" fill="none" stroke-linejoin="miter" d="M -0.000393745 2.500508 L 82.811515 2.498988 " stroke="#ffffff" stroke-width="5" stroke-opacity="1" stroke-miterlimit="4"/><path stroke-linecap="butt" transform="matrix(-0.53604, 0.52897, -0.52587, -0.532899, 215.494923, 381.50501)" fill="none" stroke-linejoin="miter" d="M -0.000297131 2.501368 L 79.547097 2.50143 " stroke="#ffffff" stroke-width="5" stroke-opacity="1" stroke-miterlimit="4"/><path stroke-linecap="butt" transform="matrix(-0.538442, 0.513797, -0.516855, -0.541647, 161.254422, 414.782555)" fill="none" stroke-linejoin="miter" d="M 0.00246909 2.500033 L 21.136686 2.49877 " stroke="#ffffff" stroke-width="5" stroke-opacity="1" stroke-miterlimit="4"/><path stroke-linecap="butt" transform="matrix(-0.538442, 0.513797, -0.516855, -0.541647, 96.107588, 372.775085)" fill="none" stroke-linejoin="miter" d="M -0.0000865803 2.49824 L 21.137927 2.500579 " stroke="#ffffff" stroke-width="5" stroke-opacity="1" stroke-miterlimit="4"/><path stroke-linecap="butt" transform="matrix(0.533385, 0.504006, -0.514198, 0.544171, 84.689544, 412.366896)" fill="none" stroke-linejoin="miter" d="M -0.00240151 2.500827 L 17.345097 2.498876 " stroke="#ffffff" stroke-width="5" stroke-opacity="1" stroke-miterlimit="4"/><path stroke-linecap="butt" transform="matrix(0.542954, 0.543807, -0.529812, 0.528981, 151.187458, 371.486041)" fill="none" stroke-linejoin="miter" d="M 0.000416901 2.499763 L 16.570593 2.501172 " stroke="#ffffff" stroke-width="5" stroke-opacity="1" stroke-miterlimit="4"/><path stroke-linecap="butt" transform="matrix(0.748832, 0, 0, 0.74868, 341.131031, 421.850713)" fill="none" stroke-linejoin="miter" d="M 0.00237949 2.500326 L 76.997333 2.500326 " stroke="#ffbd59" stroke-width="5" stroke-opacity="1" stroke-miterlimit="4"/><path stroke-linecap="butt" transform="matrix(0.748832, 0, 0, 0.74868, 424.641105, 420.432439)" fill="none" stroke-linejoin="miter" d="M -0.000641574 2.500734 L 76.994312 2.500734 " stroke="#ffbd59" stroke-width="5" stroke-opacity="1" stroke-miterlimit="4"/><path stroke-linecap="butt" transform="matrix(0.00378014, 0.752247, -0.74867, 0.00376216, 332.680398, 380.163764)" fill="none" stroke-linejoin="miter" d="M -0.00172135 2.500164 L 45.793338 2.501816 " stroke="#ffbd59" stroke-width="5" stroke-opacity="1" stroke-miterlimit="4"/><path stroke-linecap="butt" transform="matrix(0.00354059, 0.751307, -0.748671, 0.00352817, 419.340263, 380.160633)" fill="none" stroke-linejoin="miter" d="M -0.0019745 2.499769 L 48.829615 2.501129 " stroke="#ffbd59" stroke-width="5" stroke-opacity="1" stroke-miterlimit="4"/><path stroke-linecap="butt" transform="matrix(0.0151125, 0.751848, -0.748528, 0.0150458, 492.426025, 380.132969)" fill="none" stroke-linejoin="miter" d="M 0.00171721 2.500057 L 45.800292 2.501027 " stroke="#ffbd59" stroke-width="5" stroke-opacity="1" stroke-miterlimit="4"/><path stroke-linecap="butt" transform="matrix(0.000000000000000046, 0.752712, -0.74868, 0.000000000000000046, 506.942239, 371.897024)" fill="none" stroke-linejoin="miter" d="M 0.00187798 2.500304 L 69.635506 2.500304 " stroke="#ffbd59" stroke-width="5" stroke-opacity="1" stroke-miterlimit="4"/><path stroke-linecap="butt" transform="matrix(0.000000000000000046, 0.752712, -0.74868, 0.000000000000000046, 556.776794, 371.592552)" fill="none" stroke-linejoin="miter" d="M 0.00159142 2.498457 L 69.635219 2.498457 " stroke="#ffbd59" stroke-width="5" stroke-opacity="1" stroke-miterlimit="4"/><g clip-path="url(#c2ac14fc9b)"><path stroke-linecap="butt" transform="matrix(0.532015, 0.523017, -0.524863, 0.533892, 504.66139, 370.25847)" fill="none" stroke-linejoin="miter" d="M -0.000989222 2.502001 L 93.342605 2.501997 " stroke="#ffbd59" stroke-width="5" stroke-opacity="1" stroke-miterlimit="4"/></g><path stroke-linecap="butt" transform="matrix(-0.566087, 0.485268, -0.487263, -0.568415, 342.34076, 373.318171)" fill="none" stroke-linejoin="miter" d="M 0.00267465 2.499989 L 19.088934 2.500391 " stroke="#ffbd59" stroke-width="5" stroke-opacity="1" stroke-miterlimit="4"/><path stroke-linecap="butt" transform="matrix(-0.484578, 0.553506, -0.563308, -0.493159, 407.712466, 416.353824)" fill="none" stroke-linejoin="miter" d="M -0.000269059 2.499361 L 15.273389 2.501262 " stroke="#ffbd59" stroke-width="5" stroke-opacity="1" stroke-miterlimit="4"/><path stroke-linecap="butt" transform="matrix(-0.538442, 0.513797, -0.516855, -0.541647, 493.062654, 414.010781)" fill="none" stroke-linejoin="miter" d="M 0.000575721 2.501307 L 21.134792 2.500044 " stroke="#ffbd59" stroke-width="5" stroke-opacity="1" stroke-miterlimit="4"/><path stroke-linecap="butt" transform="matrix(-0.538442, 0.513797, -0.516855, -0.541647, 429.668782, 371.628525)" fill="none" stroke-linejoin="miter" d="M 0.000700186 2.502452 L 21.13854 2.497415 " stroke="#ffbd59" stroke-width="5" stroke-opacity="1" stroke-miterlimit="4"/><path stroke-linecap="butt" transform="matrix(0.530383, 0.520586, -0.524439, 0.534308, 332.209137, 412.65058)" fill="none" stroke-linejoin="miter" d="M 0.00220117 2.50147 L 19.151209 2.501569 " stroke="#ffbd59" stroke-width="5" stroke-opacity="1" stroke-miterlimit="4"/><path stroke-linecap="butt" transform="matrix(0.47111, 0.57496, -0.579106, 0.474507, 394.005589, 370.161024)" fill="none" stroke-linejoin="miter" d="M 0.00103635 2.499512 L 13.104635 2.501857 " stroke="#ffbd59" stroke-width="5" stroke-opacity="1" stroke-miterlimit="4"/><path stroke-linecap="butt" transform="matrix(0.542954, 0.543807, -0.529812, 0.528981, 418.289308, 412.405971)" fill="none" stroke-linejoin="miter" d="M -0.00165351 2.498183 L 16.568523 2.499592 " stroke="#ffbd59" stroke-width="5" stroke-opacity="1" stroke-miterlimit="4"/><path stroke-linecap="butt" transform="matrix(0.510386, 0.56046, -0.553547, 0.50409, 483.67014, 370.635208)" fill="none" stroke-linejoin="miter" d="M -0.00187219 2.500291 L 18.769677 2.497958 " stroke="#ffbd59" stroke-width="5" stroke-opacity="1" stroke-miterlimit="4"/><g clip-path="url(#1bb8c59999)"><g clip-path="url(#efce7d9cf3)"><path fill="#ffffff" d="M 3.496094 363.671875 L 563.398438 363.671875 L 563.398438 431.433594 L 3.496094 431.433594 Z M 3.496094 363.671875 " fill-opacity="1" fill-rule="nonzero"/></g></g><g clip-path="url(#10571cdecf)"><g clip-path="url(#eb68bd8bc4)"><path fill="#ffffff" d="M 3.496094 363.671875 L 563.398438 363.671875 L 563.398438 431.433594 L 3.496094 431.433594 Z M 3.496094 363.671875 " fill-opacity="1" fill-rule="nonzero"/></g></g><g clip-path="url(#6128895e73)"><g clip-path="url(#569ba2814e)"><path fill="#ffffff" d="M 3.496094 363.671875 L 563.398438 363.671875 L 563.398438 431.433594 L 3.496094 431.433594 Z M 3.496094 363.671875 " fill-opacity="1" fill-rule="nonzero"/></g></g><g clip-path="url(#b32ed7f4eb)"><g clip-path="url(#06cb86c3a0)"><path fill="#ffffff" d="M 3.496094 363.671875 L 563.398438 363.671875 L 563.398438 431.433594 L 3.496094 431.433594 Z M 3.496094 363.671875 " fill-opacity="1" fill-rule="nonzero"/></g></g><g clip-path="url(#79b4160357)"><g clip-path="url(#e03e099b62)"><path fill="#f7a636" d="M 3.496094 363.671875 L 563.398438 363.671875 L 563.398438 431.433594 L 3.496094 431.433594 Z M 3.496094 363.671875 " fill-opacity="1" fill-rule="nonzero"/></g></g><g clip-path="url(#104f40c513)"><g clip-path="url(#38242f6b8b)"><path fill="#f7a636" d="M 3.496094 363.671875 L 563.398438 363.671875 L 563.398438 431.433594 L 3.496094 431.433594 Z M 3.496094 363.671875 " fill-opacity="1" fill-rule="nonzero"/></g></g><g clip-path="url(#31b62c6869)"><g clip-path="url(#29b6526209)"><path fill="#f7a636" d="M 3.496094 363.671875 L 563.398438 363.671875 L 563.398438 431.433594 L 3.496094 431.433594 Z M 3.496094 363.671875 " fill-opacity="1" fill-rule="nonzero"/></g></g><path stroke-linecap="butt" transform="matrix(0.012387, 0.695999, -0.748561, 0.0133224, 400.557529, 377.933897)" fill="none" stroke-linejoin="miter" d="M 0.00225747 2.498202 L 6.467738 2.500824 " stroke="#ffbd59" stroke-width="5" stroke-opacity="1" stroke-miterlimit="4"/><path stroke-linecap="butt" transform="matrix(0.000000000000000046, 0.74868, -0.74868, 0.000000000000000046, 406.931061, 411.412539)" fill="none" stroke-linejoin="miter" d="M 0.00203471 2.501026 L 7.014381 2.501026 " stroke="#ffbd59" stroke-width="5" stroke-opacity="1" stroke-miterlimit="4"/></svg>