<svg xmlns="http://www.w3.org/2000/svg" xmlns:xlink="http://www.w3.org/1999/xlink" width="893" zoomAndPan="magnify" viewBox="0 0 669.75 360.749986" height="481" preserveAspectRatio="xMidYMid meet" version="1.0"><defs><clipPath id="8e64a56e3f"><path d="M 10.996094 0.652344 L 659 0.652344 L 659 254.9375 L 10.996094 254.9375 Z M 10.996094 0.652344 " clip-rule="nonzero"/></clipPath><clipPath id="23a1f337c8"><path d="M 10.996094 247.632812 L 237.125 247.632812 L 237.125 251.152344 L 233.601562 251.152344 L 233.601562 167.507812 L 259.632812 141.476562 L 303.335938 141.476562 L 303.335938 254.882812 L 272.546875 254.882812 L 272.546875 0.652344 L 346.503906 0.652344 L 346.503906 254.882812 L 313 254.882812 L 313 82.488281 L 342.636719 56.277344 L 368.984375 82.625 L 368.984375 251.347656 L 365.460938 251.347656 L 365.460938 247.824219 L 417.894531 247.835938 L 417.894531 251.359375 L 414.371094 251.359375 L 414.371094 181.820312 L 462.363281 181.820312 L 462.363281 251.25 L 458.839844 251.25 L 458.839844 247.726562 L 658.746094 247.726562 L 658.746094 254.773438 L 455.316406 254.773438 L 455.316406 185.339844 L 458.839844 185.339844 L 458.839844 188.863281 L 417.894531 188.863281 L 417.894531 185.339844 L 421.417969 185.339844 L 421.417969 254.882812 L 361.9375 254.871094 L 361.9375 84.066406 L 365.460938 84.066406 L 362.964844 86.558594 L 339.992188 63.597656 L 342.488281 61.105469 L 344.816406 63.738281 L 318.855469 86.710938 L 316.523438 84.078125 L 320.046875 84.078125 L 320.046875 251.359375 L 316.523438 251.359375 L 316.523438 247.835938 L 342.992188 247.835938 L 342.992188 251.359375 L 339.46875 251.359375 L 339.46875 4.175781 L 342.992188 4.175781 L 342.992188 7.699219 L 276.070312 7.699219 L 276.070312 4.175781 L 279.59375 4.175781 L 279.59375 251.359375 L 276.070312 251.359375 L 276.070312 247.835938 L 299.800781 247.835938 L 299.800781 251.359375 L 296.277344 251.359375 L 296.277344 145 L 299.800781 145 L 299.800781 148.519531 L 261.101562 148.519531 L 261.101562 145 L 263.597656 147.492188 L 239.621094 171.46875 L 237.125 168.972656 L 240.648438 168.972656 L 240.648438 254.691406 L 10.996094 254.691406 L 10.996094 247.632812 " clip-rule="nonzero"/></clipPath><clipPath id="cf277ccd9d"><path d="M 7.539062 286.046875 L 85.675781 286.046875 L 85.675781 353.902344 L 7.539062 353.902344 Z M 7.539062 286.046875 " clip-rule="nonzero"/></clipPath><clipPath id="3ed3f17976"><path d="M 45.609375 350.105469 L 45.691406 350.820312 L 46.308594 352.136719 L 46.308594 350.820312 L 47.183594 350.640625 L 48.5 350.121094 L 47.183594 350.121094 L 47.183594 290.269531 L 81.921875 290.269531 L 81.921875 291.585938 L 81.921875 290.269531 L 82.632812 290.1875 L 83.949219 289.570312 L 82.632812 289.570312 L 82.457031 288.695312 L 81.933594 287.378906 L 81.933594 288.695312 L 10.898438 288.695312 L 10.1875 288.777344 L 8.871094 289.394531 L 10.1875 289.394531 L 10.363281 290.269531 L 10.886719 291.585938 L 10.886719 290.269531 L 45.609375 290.269531 L 45.609375 350.105469 L 44.292969 350.105469 L 45.609375 350.105469 M 42.960938 350.105469 L 42.960938 291.601562 L 44.277344 291.601562 L 44.277344 292.914062 L 10.898438 292.914062 C 8.71875 292.914062 7.539062 291.488281 7.539062 289.40625 C 7.539062 287.324219 8.816406 286.046875 10.898438 286.046875 L 81.921875 286.046875 C 84.101562 286.046875 85.265625 287.472656 85.265625 289.570312 C 85.265625 291.667969 84.003906 292.914062 81.921875 292.914062 L 48.515625 292.914062 L 48.515625 291.601562 L 49.832031 291.601562 L 49.832031 350.105469 C 49.832031 352.285156 48.40625 353.449219 46.308594 353.449219 C 44.210938 353.449219 42.960938 352.191406 42.960938 350.105469 " clip-rule="nonzero"/></clipPath><clipPath id="c9e30ea30d"><path d="M 93.214844 286.046875 L 189.859375 286.046875 L 189.859375 353.902344 L 93.214844 353.902344 Z M 93.214844 286.046875 " clip-rule="nonzero"/></clipPath><clipPath id="7b458530c1"><path d="M 96.519531 300.648438 L 96.519531 338.949219 L 95.203125 338.949219 L 96.519531 338.949219 L 96.589844 339.371094 L 95.792969 340.46875 L 96.726562 339.539062 L 107.800781 350.695312 L 106.871094 351.628906 L 107.800781 350.695312 L 107.910156 350.820312 L 108.390625 352.136719 L 108.390625 350.820312 L 174.175781 350.820312 L 174.175781 352.136719 L 174.175781 350.820312 L 174.574219 350.765625 L 175.617188 351.628906 L 174.699219 350.667969 L 186.402344 339.46875 C 186.554688 339.332031 186.625 339.195312 186.625 338.949219 L 187.941406 338.949219 L 186.625 338.949219 L 186.625 300.648438 L 187.941406 300.648438 L 186.625 300.648438 L 186.582031 300.34375 L 187.351562 299.222656 L 186.402344 300.140625 L 175.453125 288.925781 C 175.3125 288.777344 175.175781 288.707031 174.929688 288.707031 L 108.472656 288.707031 L 108.007812 288.789062 L 106.953125 287.96875 L 107.882812 288.898438 L 96.726562 300.058594 C 96.601562 300.179688 96.519531 300.332031 96.519531 300.648438 L 95.203125 300.648438 L 96.519531 300.648438 M 93.875 300.648438 L 94.175781 298.863281 L 95.78125 299.125 L 94.847656 298.195312 L 106.007812 287.035156 C 106.679688 286.363281 107.527344 286.0625 108.460938 286.0625 L 174.917969 286.0625 C 175.902344 286.0625 176.78125 286.445312 177.4375 287.1875 L 176.4375 288.050781 L 177.382812 287.132812 L 188.335938 298.34375 C 188.898438 298.988281 189.253906 299.769531 189.253906 300.648438 L 189.253906 338.949219 C 189.253906 339.933594 188.871094 340.8125 188.132812 341.46875 L 187.269531 340.46875 L 188.1875 341.429688 L 176.398438 352.695312 C 175.738281 353.191406 175 353.464844 174.164062 353.464844 L 108.390625 353.464844 C 107.515625 353.464844 106.609375 353.246094 105.9375 352.574219 L 94.804688 341.347656 C 94.21875 340.675781 93.886719 339.851562 93.886719 338.949219 L 93.886719 300.648438 L 93.875 300.648438 M 98.492188 300.539062 L 108.746094 290.285156 L 174.574219 290.285156 L 185.046875 301.003906 L 185.046875 338.578125 L 173.917969 349.230469 L 108.582031 349.230469 L 98.109375 338.671875 L 98.109375 300.921875 L 98.492188 300.539062 M 100.359375 302.402344 L 99.425781 301.46875 L 100.742188 301.46875 L 100.742188 338.125 L 99.425781 338.125 L 100.359375 337.191406 L 110.0625 346.980469 L 109.132812 347.914062 L 109.132812 346.597656 L 173.382812 346.597656 L 173.382812 347.914062 L 172.464844 346.953125 L 182.8125 337.054688 L 183.730469 338.015625 L 182.414062 338.015625 L 182.414062 301.539062 L 183.730469 301.539062 L 182.785156 302.457031 L 173.066406 292.519531 L 174.011719 291.601562 L 174.011719 292.914062 L 109.296875 292.914062 L 109.296875 291.601562 L 110.226562 292.53125 L 100.359375 302.402344 " clip-rule="nonzero"/></clipPath><clipPath id="9c3ecffcf5"><path d="M 195.34375 286.046875 L 305 286.046875 L 305 353.902344 L 195.34375 353.902344 Z M 195.34375 286.046875 " clip-rule="nonzero"/></clipPath><clipPath id="431ee3e76f"><path d="M 199.289062 288.859375 L 198.414062 289.035156 L 197.097656 289.558594 L 198.414062 289.558594 L 198.414062 350.011719 L 197.097656 350.011719 L 198.414062 350.011719 L 198.480469 350.394531 L 197.769531 351.519531 L 198.632812 350.515625 L 199.070312 350.777344 L 199.207031 352.09375 L 199.207031 350.777344 L 199.785156 350.683594 L 200.730469 351.613281 L 199.796875 350.683594 L 249.570312 300.90625 L 251.175781 300.90625 L 300.851562 350.683594 L 299.921875 351.613281 L 300.757812 350.585938 L 301.074219 350.777344 L 301.359375 352.09375 L 301.359375 350.777344 L 301.785156 350.710938 L 302.882812 351.503906 L 302.003906 350.515625 L 302.238281 350.242188 L 303.554688 349.996094 L 302.238281 349.996094 L 302.238281 289.558594 L 303.554688 289.558594 L 302.238281 289.558594 L 302.15625 288.859375 L 301.523438 287.542969 L 301.523438 288.859375 L 300.648438 289.035156 L 299.332031 289.558594 L 300.648438 289.558594 L 300.648438 348.253906 L 251.96875 299.480469 C 251.941406 299.453125 251.875 299.34375 251.519531 299.34375 L 249.199219 299.34375 L 248.816406 299.414062 L 248.679688 299.578125 L 200.003906 348.253906 L 200.003906 289.570312 L 201.320312 289.570312 L 200.003906 289.570312 L 199.921875 288.859375 L 199.304688 287.542969 L 199.304688 288.859375 M 199.304688 286.210938 C 201.386719 286.210938 202.648438 287.488281 202.648438 289.570312 L 202.648438 345.0625 L 201.332031 345.0625 L 200.398438 344.128906 L 246.789062 297.742188 L 247.722656 298.671875 L 246.734375 297.796875 L 248.253906 296.714844 L 251.53125 296.714844 C 252.503906 296.714844 253.4375 297.042969 254.066406 297.863281 L 253.027344 298.671875 L 253.957031 297.742188 L 300.265625 344.128906 L 299.332031 345.0625 L 298.015625 345.0625 L 298.015625 289.570312 C 298.015625 287.390625 299.441406 286.226562 301.539062 286.226562 C 303.621094 286.226562 304.882812 287.488281 304.882812 289.570312 L 304.882812 350.023438 C 304.882812 351.011719 304.5 351.886719 303.757812 352.53125 L 302.277344 353.449219 L 301.375 353.449219 C 300.539062 353.449219 299.757812 353.203125 299.097656 352.667969 L 299.042969 352.628906 L 249.695312 303.195312 L 250.625 302.265625 L 250.625 303.582031 L 250.121094 303.582031 L 250.121094 302.265625 L 251.050781 303.195312 L 201.578125 352.667969 C 200.90625 353.21875 200.085938 353.449219 199.222656 353.449219 L 197.5625 353.09375 L 196.917969 352.53125 C 196.164062 351.875 195.792969 350.996094 195.792969 350.023438 L 195.792969 289.558594 C 195.792969 287.378906 197.21875 286.210938 199.316406 286.210938 L 199.304688 286.210938 " clip-rule="nonzero"/></clipPath><clipPath id="e936e45a5b"><path d="M 312.546875 286.046875 L 379.714844 286.046875 L 379.714844 353.902344 L 312.546875 353.902344 Z M 312.546875 286.046875 " clip-rule="nonzero"/></clipPath><clipPath id="23c3372926"><path d="M 316.234375 350.820312 L 317.109375 350.640625 L 318.425781 350.105469 L 317.109375 350.105469 L 317.109375 291.339844 L 374.972656 349.203125 L 374.042969 350.132812 L 374.972656 349.1875 L 375.21875 349.367188 L 375.425781 350.683594 L 375.425781 349.378906 L 375.917969 349.257812 L 375.933594 349.230469 L 376.207031 348.625 L 377.523438 348.503906 L 376.207031 348.503906 L 376.152344 348.144531 L 376.945312 347.0625 L 376.015625 347.996094 L 316.90625 288.898438 L 317.835938 287.96875 L 316.90625 288.898438 L 316.617188 288.695312 L 316.398438 287.378906 L 316.398438 288.695312 L 315.519531 288.859375 L 314.207031 289.488281 L 315.519531 289.488281 L 315.519531 350.105469 L 314.207031 350.105469 L 315.519531 350.105469 L 315.601562 350.820312 L 316.21875 352.136719 L 316.21875 350.820312 M 316.21875 353.464844 C 314.136719 353.464844 312.875 352.203125 312.875 350.121094 L 312.875 289.488281 C 312.875 287.296875 314.246094 286.046875 316.398438 286.046875 L 318.125 286.378906 L 377.878906 346.128906 C 378.523438 346.773438 378.851562 347.597656 378.851562 348.503906 L 378.566406 349.996094 L 377.042969 349.929688 L 378.152344 350.640625 L 376.480469 352.011719 L 375.410156 352.011719 C 374.535156 352.011719 373.738281 351.695312 373.109375 351.066406 L 317.496094 295.453125 L 318.425781 294.519531 L 319.742188 294.519531 L 319.742188 350.105469 C 319.742188 352.285156 318.316406 353.464844 316.21875 353.464844 M 376.261719 288.695312 L 375.382812 288.871094 L 374.070312 289.40625 L 375.382812 289.40625 L 375.382812 350.105469 L 374.070312 350.105469 L 375.382812 350.105469 L 375.464844 350.820312 L 376.082031 352.136719 L 376.082031 350.820312 L 376.960938 350.640625 L 378.277344 350.105469 L 376.960938 350.105469 L 376.960938 289.40625 L 378.277344 289.40625 L 376.960938 289.40625 L 376.878906 288.695312 L 376.261719 287.378906 L 376.261719 288.695312 M 376.261719 286.046875 C 378.34375 286.046875 379.605469 287.324219 379.605469 289.40625 L 379.605469 350.105469 C 379.605469 352.285156 378.179688 353.464844 376.082031 353.464844 C 373.984375 353.464844 372.726562 352.203125 372.726562 350.105469 L 372.726562 289.40625 C 372.726562 287.226562 374.152344 286.046875 376.25 286.046875 L 376.261719 286.046875 " clip-rule="nonzero"/></clipPath><clipPath id="b5cfcaedd4"><path d="M 387.253906 286.046875 L 483.210938 286.046875 L 483.210938 353.902344 L 387.253906 353.902344 Z M 387.253906 286.046875 " clip-rule="nonzero"/></clipPath><clipPath id="bb587566af"><path d="M 479.757812 337.480469 L 478.882812 337.671875 L 477.566406 338.179688 L 478.882812 338.179688 L 478.882812 342.9375 L 472.246094 349.230469 L 402.582031 349.230469 L 391.929688 338.34375 L 391.929688 300.839844 L 402.566406 290.269531 L 465.417969 290.269531 L 471.765625 296.890625 L 471.765625 300.632812 L 470.449219 300.632812 L 471.765625 300.632812 L 471.847656 301.347656 L 472.464844 302.664062 L 472.464844 301.347656 L 473.34375 301.167969 L 474.660156 300.648438 L 473.34375 300.648438 L 473.34375 296.589844 L 474.660156 296.589844 L 473.34375 296.589844 L 473.300781 296.273438 L 474.070312 295.148438 L 473.125 296.070312 L 466.226562 288.914062 C 466.089844 288.761719 465.953125 288.695312 465.695312 288.695312 L 402.308594 288.695312 L 401.882812 288.761719 L 400.785156 287.96875 L 401.71875 288.898438 L 390.476562 300.042969 C 390.464844 300.058594 390.355469 300.140625 390.355469 300.566406 L 389.039062 300.566406 L 390.355469 300.566406 L 390.355469 338.699219 L 389.039062 338.699219 L 390.355469 338.699219 L 390.394531 339.015625 L 389.628906 340.140625 L 390.574219 339.222656 L 401.730469 350.640625 L 400.785156 351.558594 L 401.71875 350.628906 L 401.992188 350.832031 L 402.308594 352.148438 L 402.308594 350.832031 L 472.574219 350.832031 L 472.574219 352.148438 L 472.574219 350.832031 L 472.890625 350.792969 L 474.015625 351.574219 L 473.097656 350.613281 L 480.25 343.757812 C 480.402344 343.621094 480.472656 343.5 480.472656 343.238281 L 481.785156 343.238281 L 480.472656 343.238281 L 480.472656 338.179688 L 481.785156 338.179688 L 480.472656 338.179688 L 480.390625 337.480469 L 479.757812 336.164062 L 479.757812 337.480469 M 479.757812 334.835938 C 481.84375 334.835938 483.101562 336.097656 483.101562 338.179688 L 483.101562 343.226562 C 483.101562 344.210938 482.71875 345.089844 481.980469 345.734375 L 481.117188 344.734375 L 482.035156 345.691406 L 474.878906 352.546875 C 474.234375 353.109375 473.453125 353.464844 472.574219 353.464844 L 402.308594 353.464844 C 401.375 353.464844 400.523438 353.164062 399.855469 352.492188 L 388.625 341.003906 C 388.066406 340.359375 387.707031 339.578125 387.707031 338.699219 L 387.707031 300.566406 C 387.707031 299.632812 387.980469 298.699219 388.761719 298.042969 L 389.628906 299.042969 L 388.695312 298.109375 L 399.921875 286.980469 C 400.59375 286.390625 401.402344 286.0625 402.308594 286.0625 L 465.722656 286.0625 C 466.707031 286.0625 467.585938 286.445312 468.242188 287.1875 L 467.242188 288.050781 L 468.1875 287.132812 L 475.082031 294.285156 C 475.644531 294.929688 476.003906 295.710938 476.003906 296.589844 L 476.003906 300.648438 C 476.003906 302.828125 474.578125 304.003906 472.480469 304.003906 C 470.382812 304.003906 469.132812 302.730469 469.132812 300.648438 L 469.132812 297.425781 L 470.449219 297.425781 L 469.492188 298.34375 L 463.898438 292.503906 L 464.859375 291.585938 L 464.859375 292.902344 L 403.128906 292.902344 L 403.128906 291.601562 L 404.0625 292.53125 L 394.191406 302.320312 L 393.261719 301.386719 L 394.574219 301.386719 L 394.574219 337.808594 L 393.261719 337.808594 L 394.207031 336.890625 L 404.089844 346.996094 L 403.144531 347.914062 L 403.144531 346.597656 L 471.726562 346.597656 L 471.726562 347.914062 L 470.820312 346.953125 L 476.660156 341.414062 L 477.566406 342.375 L 476.25 342.375 L 476.25 338.179688 C 476.25 336 477.6875 334.847656 479.773438 334.847656 L 479.757812 334.835938 " clip-rule="nonzero"/></clipPath><clipPath id="52a584e794"><path d="M 490.066406 286.046875 L 586.710938 286.046875 L 586.710938 353.902344 L 490.066406 353.902344 Z M 490.066406 286.046875 " clip-rule="nonzero"/></clipPath><clipPath id="fcefc93ed6"><path d="M 493.34375 300.648438 L 493.34375 338.949219 L 492.027344 338.949219 L 493.34375 338.949219 L 493.410156 339.371094 L 492.617188 340.46875 L 493.546875 339.539062 L 504.625 350.695312 L 503.691406 351.628906 L 504.625 350.695312 L 504.734375 350.820312 L 505.214844 352.136719 L 505.214844 350.820312 L 571 350.820312 L 571 352.136719 L 571 350.820312 L 571.398438 350.765625 L 572.4375 351.628906 L 571.519531 350.667969 L 583.226562 339.46875 C 583.378906 339.332031 583.445312 339.195312 583.445312 338.949219 L 584.761719 338.949219 L 583.445312 338.949219 L 583.445312 300.648438 L 584.761719 300.648438 L 583.445312 300.648438 L 583.40625 300.34375 L 584.171875 299.222656 L 583.226562 300.140625 L 572.273438 288.925781 C 572.136719 288.777344 572 288.707031 571.753906 288.707031 L 505.296875 288.707031 L 504.832031 288.789062 L 503.773438 287.96875 L 504.707031 288.898438 L 493.546875 300.058594 C 493.425781 300.179688 493.34375 300.332031 493.34375 300.648438 L 492.027344 300.648438 L 493.34375 300.648438 M 490.699219 300.648438 L 491 298.863281 L 492.601562 299.125 L 491.671875 298.195312 L 502.828125 287.035156 C 503.5 286.363281 504.351562 286.0625 505.28125 286.0625 L 571.765625 286.0625 C 572.753906 286.0625 573.632812 286.445312 574.289062 287.1875 L 573.289062 288.050781 L 574.234375 287.132812 L 585.1875 298.34375 C 585.75 298.988281 586.105469 299.769531 586.105469 300.648438 L 586.105469 338.949219 C 586.105469 339.933594 585.722656 340.8125 584.980469 341.46875 L 584.117188 340.46875 L 585.035156 341.429688 L 573.246094 352.695312 C 572.589844 353.191406 571.835938 353.464844 571.011719 353.464844 L 505.214844 353.464844 C 504.335938 353.464844 503.433594 353.246094 502.761719 352.574219 L 491.628906 341.347656 C 491.039062 340.675781 490.710938 339.851562 490.710938 338.949219 L 490.710938 300.648438 L 490.699219 300.648438 M 495.316406 300.539062 L 505.570312 290.285156 L 571.398438 290.285156 L 581.871094 301.003906 L 581.871094 338.578125 L 570.738281 349.230469 L 505.40625 349.230469 L 494.933594 338.671875 L 494.933594 300.921875 L 495.316406 300.539062 M 497.179688 302.402344 L 496.25 301.46875 L 497.566406 301.46875 L 497.566406 338.125 L 496.25 338.125 L 497.179688 337.191406 L 506.886719 346.980469 L 505.953125 347.914062 L 505.953125 346.597656 L 570.203125 346.597656 L 570.203125 347.914062 L 569.285156 346.953125 L 579.636719 337.054688 L 580.554688 338.015625 L 579.238281 338.015625 L 579.238281 301.539062 L 580.554688 301.539062 L 579.609375 302.457031 L 569.890625 292.519531 L 570.835938 291.601562 L 570.835938 292.914062 L 506.117188 292.914062 L 506.117188 291.601562 L 507.050781 292.53125 L 497.179688 302.402344 " clip-rule="nonzero"/></clipPath><clipPath id="1a702a4e19"><path d="M 595 286.046875 L 662.789062 286.046875 L 662.789062 353.902344 L 595 353.902344 Z M 595 286.046875 " clip-rule="nonzero"/></clipPath><clipPath id="0e7dc7d32e"><path d="M 598.828125 350.820312 L 599.703125 350.640625 L 601.019531 350.105469 L 599.703125 350.105469 L 599.703125 291.339844 L 657.566406 349.203125 L 656.632812 350.132812 L 657.566406 349.1875 L 657.8125 349.367188 L 658.019531 350.683594 L 658.019531 349.378906 L 658.511719 349.257812 L 658.527344 349.230469 L 658.800781 348.625 L 660.117188 348.503906 L 658.800781 348.503906 L 658.746094 348.144531 L 599.5 288.898438 L 600.429688 287.96875 L 599.5 288.898438 L 599.210938 288.695312 L 598.992188 287.378906 L 598.992188 288.695312 L 598.113281 288.859375 L 596.796875 289.488281 L 598.113281 289.488281 L 598.113281 350.105469 L 596.796875 350.105469 L 598.113281 350.105469 L 598.195312 350.820312 L 598.8125 352.136719 L 598.8125 350.820312 M 598.8125 353.464844 C 596.730469 353.464844 595.46875 352.203125 595.46875 350.121094 L 595.46875 289.488281 C 595.46875 287.296875 596.839844 286.046875 598.992188 286.046875 L 600.71875 286.378906 L 660.472656 346.128906 L 659.539062 347.0625 L 660.472656 346.128906 L 661.445312 347.597656 L 661.445312 348.503906 C 661.445312 349.285156 661.15625 349.996094 660.746094 350.65625 L 659.636719 349.941406 L 660.746094 350.65625 L 659.074219 352.023438 L 658.003906 352.023438 C 657.128906 352.023438 656.332031 351.710938 655.703125 351.078125 L 600.089844 295.464844 L 601.019531 294.535156 L 602.335938 294.535156 L 602.335938 350.105469 C 602.335938 352.285156 600.910156 353.464844 598.8125 353.464844 M 658.855469 288.695312 L 657.976562 288.871094 L 656.660156 289.40625 L 657.976562 289.40625 L 657.976562 350.105469 L 656.660156 350.105469 L 657.976562 350.105469 L 658.058594 350.820312 L 658.675781 352.136719 L 658.675781 350.820312 L 659.554688 350.640625 L 660.871094 350.105469 L 659.554688 350.105469 L 659.554688 289.40625 L 660.871094 289.40625 L 659.554688 289.40625 L 659.472656 288.695312 L 658.855469 287.378906 L 658.855469 288.695312 M 658.855469 286.046875 C 660.9375 286.046875 662.199219 287.324219 662.199219 289.40625 L 662.199219 350.105469 C 662.199219 352.285156 660.773438 353.464844 658.675781 353.464844 C 656.578125 353.464844 655.332031 352.203125 655.332031 350.105469 L 655.332031 289.40625 C 655.332031 287.226562 656.757812 286.046875 658.855469 286.046875 " clip-rule="nonzero"/></clipPath><clipPath id="1c2ab6776f"><path d="M 160 273 L 213 273 L 213 360.5 L 160 360.5 Z M 160 273 " clip-rule="nonzero"/></clipPath><clipPath id="058bbeeb85"><path d="M 174 264 L 226 264 L 226 360.5 L 174 360.5 Z M 174 264 " clip-rule="nonzero"/></clipPath><clipPath id="94fe8bd609"><path d="M 290 264 L 401 264 L 401 360.5 L 290 360.5 Z M 290 264 " clip-rule="nonzero"/></clipPath><clipPath id="139dcb6029"><path d="M 224 273 L 328 273 L 328 360.5 L 224 360.5 Z M 224 273 " clip-rule="nonzero"/></clipPath><clipPath id="51a1365eb9"><path d="M 176 273 L 278 273 L 278 360.5 L 176 360.5 Z M 176 273 " clip-rule="nonzero"/></clipPath><clipPath id="cfe1351911"><path d="M 148 313 L 213 313 L 213 360.5 L 148 360.5 Z M 148 313 " clip-rule="nonzero"/></clipPath><clipPath id="b4a4d661a1"><path d="M 70 313 L 134 313 L 134 360.5 L 70 360.5 Z M 70 313 " clip-rule="nonzero"/></clipPath><clipPath id="d468301d58"><path d="M 365 273 L 418 273 L 418 360.5 L 365 360.5 Z M 365 273 " clip-rule="nonzero"/></clipPath><clipPath id="5d2c6c5e6a"><path d="M 469 273 L 521 273 L 521 360.5 L 469 360.5 Z M 469 273 " clip-rule="nonzero"/></clipPath><clipPath id="e7f012bb11"><path d="M 556 273 L 609 273 L 609 360.5 L 556 360.5 Z M 556 273 " clip-rule="nonzero"/></clipPath><clipPath id="02cf95ba42"><path d="M 571 263 L 669.394531 263 L 669.394531 360.5 L 571 360.5 Z M 571 263 " clip-rule="nonzero"/></clipPath><clipPath id="efef030a8e"><path d="M 447 315 L 507 315 L 507 360.5 L 447 360.5 Z M 447 315 " clip-rule="nonzero"/></clipPath><clipPath id="686431f925"><path d="M 544 312 L 609 312 L 609 360.5 L 544 360.5 Z M 544 312 " clip-rule="nonzero"/></clipPath><clipPath id="d8351f16c5"><path d="M 365 314 L 430 314 L 430 360.5 L 365 360.5 Z M 365 314 " clip-rule="nonzero"/></clipPath><clipPath id="107649ef0e"><path d="M 468 313 L 531 313 L 531 360.5 L 468 360.5 Z M 468 313 " clip-rule="nonzero"/></clipPath></defs><g clip-path="url(#8e64a56e3f)"><g clip-path="url(#23a1f337c8)"><path fill="#1f2533" d="M 10.996094 0.652344 L 658.707031 0.652344 L 658.707031 254.9375 L 10.996094 254.9375 Z M 10.996094 0.652344 " fill-opacity="1" fill-rule="nonzero"/></g></g><g clip-path="url(#cf277ccd9d)"><g clip-path="url(#3ed3f17976)"><path fill="#1f2533" d="M 0.6875 279.195312 L 668.957031 279.195312 L 668.957031 360.070312 L 0.6875 360.070312 Z M 0.6875 279.195312 " fill-opacity="1" fill-rule="nonzero"/></g></g><g clip-path="url(#c9e30ea30d)"><g clip-path="url(#7b458530c1)"><path fill="#1f2533" d="M 0.6875 279.195312 L 668.957031 279.195312 L 668.957031 360.070312 L 0.6875 360.070312 Z M 0.6875 279.195312 " fill-opacity="1" fill-rule="nonzero"/></g></g><g clip-path="url(#9c3ecffcf5)"><g clip-path="url(#431ee3e76f)"><path fill="#1f2533" d="M 0.6875 279.195312 L 668.957031 279.195312 L 668.957031 360.070312 L 0.6875 360.070312 Z M 0.6875 279.195312 " fill-opacity="1" fill-rule="nonzero"/></g></g><g clip-path="url(#e936e45a5b)"><g clip-path="url(#23c3372926)"><path fill="#1f2533" d="M 0.6875 279.195312 L 668.957031 279.195312 L 668.957031 360.070312 L 0.6875 360.070312 Z M 0.6875 279.195312 " fill-opacity="1" fill-rule="nonzero"/></g></g><g clip-path="url(#b5cfcaedd4)"><g clip-path="url(#bb587566af)"><path fill="#f7a636" d="M 0.6875 279.195312 L 668.957031 279.195312 L 668.957031 360.070312 L 0.6875 360.070312 Z M 0.6875 279.195312 " fill-opacity="1" fill-rule="nonzero"/></g></g><g clip-path="url(#52a584e794)"><g clip-path="url(#fcefc93ed6)"><path fill="#f7a636" d="M 0.6875 279.195312 L 668.957031 279.195312 L 668.957031 360.070312 L 0.6875 360.070312 Z M 0.6875 279.195312 " fill-opacity="1" fill-rule="nonzero"/></g></g><g clip-path="url(#1a702a4e19)"><g clip-path="url(#0e7dc7d32e)"><path fill="#f7a636" d="M 0.6875 279.195312 L 668.957031 279.195312 L 668.957031 360.070312 L 0.6875 360.070312 Z M 0.6875 279.195312 " fill-opacity="1" fill-rule="nonzero"/></g></g><path stroke-linecap="butt" transform="matrix(0.753256, 0.000000000000001703, -0.000000000000001696, 0.74976, 8.652442, 287.170293)" fill="none" stroke-linejoin="miter" d="M -0.000131032 2.997859 L 100.542519 2.997859 " stroke="#1f2533" stroke-width="6" stroke-opacity="1" stroke-miterlimit="4"/><path stroke-linecap="butt" transform="matrix(0.746542, 0, 0, 0.74976, 400.221297, 287.170293)" fill="none" stroke-linejoin="miter" d="M 0.00182026 2.997859 L 87.378595 2.997859 " stroke="#ffbd59" stroke-width="6" stroke-opacity="1" stroke-miterlimit="4"/><path stroke-linecap="butt" transform="matrix(0.751675, 0, 0, 0.74976, 503.368159, 287.170293)" fill="none" stroke-linejoin="miter" d="M -0.00129191 2.997859 L 91.767692 2.997859 " stroke="#ffbd59" stroke-width="6" stroke-opacity="1" stroke-miterlimit="4"/><path stroke-linecap="butt" transform="matrix(0.751675, 0, 0, 0.74976, 107.351534, 287.170293)" fill="none" stroke-linejoin="miter" d="M 0.0000375379 2.997859 L 91.769021 2.997859 " stroke="#1f2533" stroke-width="6" stroke-opacity="1" stroke-miterlimit="4"/><path stroke-linecap="butt" transform="matrix(0.000000000000000046, 0.749901, -0.74976, 0.000000000000000046, 48.179613, 289.421985)" fill="none" stroke-linejoin="miter" d="M -0.000146228 3.00086 L 82.98993 3.00086 " stroke="#1f2533" stroke-width="6" stroke-opacity="1" stroke-miterlimit="4"/><path stroke-linecap="butt" transform="matrix(0.751675, 0, 0, 0.74976, 107.351534, 349.030017)" fill="none" stroke-linejoin="miter" d="M 0.0000375379 3.002604 L 91.769021 3.002604 " stroke="#1f2533" stroke-width="6" stroke-opacity="1" stroke-miterlimit="4"/><path stroke-linecap="butt" transform="matrix(-0.000000000000001631, 0.755556, -0.74976, -0.000000000000001619, 98.931536, 299.290535)" fill="none" stroke-linejoin="miter" d="M -0.00194936 2.998215 L 54.588456 2.998215 " stroke="#1f2533" stroke-width="6" stroke-opacity="1" stroke-miterlimit="4"/><g clip-path="url(#1c2ab6776f)"><path stroke-linecap="butt" transform="matrix(0.0107378, 0.755479, -0.749685, 0.0106554, 188.500611, 299.265475)" fill="none" stroke-linejoin="miter" d="M -0.000778719 3.002067 L 54.579625 3.002245 " stroke="#1f2533" stroke-width="6" stroke-opacity="1" stroke-miterlimit="4"/></g><g clip-path="url(#058bbeeb85)"><path stroke-linecap="butt" transform="matrix(-0.00186625, 0.745301, -0.749758, -0.00187741, 202.393302, 289.426318)" fill="none" stroke-linejoin="miter" d="M 0.00159333 2.999325 L 81.486071 2.999689 " stroke="#1f2533" stroke-width="6" stroke-opacity="1" stroke-miterlimit="4"/></g><path stroke-linecap="butt" transform="matrix(0.000000000000000046, 0.749901, -0.74976, 0.000000000000000046, 303.994904, 287.773948)" fill="none" stroke-linejoin="miter" d="M -0.00068033 2.999373 L 82.989396 2.999373 " stroke="#1f2533" stroke-width="6" stroke-opacity="1" stroke-miterlimit="4"/><path stroke-linecap="butt" transform="matrix(0.000000000000000046, 0.749901, -0.74976, 0.000000000000000046, 318.573999, 289.058545)" fill="none" stroke-linejoin="miter" d="M 0.0000645422 3.000666 L 82.990141 3.000666 " stroke="#1f2533" stroke-width="6" stroke-opacity="1" stroke-miterlimit="4"/><path stroke-linecap="butt" transform="matrix(0.000000000000002052, 0.752944, -0.74976, 0.000000000000002044, 378.616934, 288.181157)" fill="none" stroke-linejoin="miter" d="M -0.00195121 3.000621 L 84.644987 3.000621 " stroke="#1f2533" stroke-width="6" stroke-opacity="1" stroke-miterlimit="4"/><g clip-path="url(#94fe8bd609)"><path stroke-linecap="butt" transform="matrix(0.533536, 0.524513, -0.52562, 0.534662, 317.022896, 288.045634)" fill="none" stroke-linejoin="miter" d="M -0.00179718 2.99955 L 111.247376 2.999446 " stroke="#1f2533" stroke-width="6" stroke-opacity="1" stroke-miterlimit="4"/></g><g clip-path="url(#139dcb6029)"><path stroke-linecap="butt" transform="matrix(0.529009, 0.534654, -0.532967, 0.52734, 251.893504, 297.687467)" fill="none" stroke-linejoin="miter" d="M -0.00148636 3.001593 L 98.699218 2.999272 " stroke="#1f2533" stroke-width="6" stroke-opacity="1" stroke-miterlimit="4"/></g><g clip-path="url(#51a1365eb9)"><path stroke-linecap="butt" transform="matrix(-0.534812, 0.527758, -0.526629, -0.533669, 253.758569, 300.899196)" fill="none" stroke-linejoin="miter" d="M -0.00218369 3.000306 L 94.804081 2.999532 " stroke="#1f2533" stroke-width="6" stroke-opacity="1" stroke-miterlimit="4"/></g><g clip-path="url(#cfe1351911)"><path stroke-linecap="butt" transform="matrix(-0.538391, 0.513748, -0.517601, -0.542429, 189.0203, 340.617655)" fill="none" stroke-linejoin="miter" d="M 0.000469819 2.99709 L 25.194763 3.000983 " stroke="#1f2533" stroke-width="6" stroke-opacity="1" stroke-miterlimit="4"/></g><path stroke-linecap="butt" transform="matrix(-0.538391, 0.513748, -0.517601, -0.542429, 111.264334, 290.47963)" fill="none" stroke-linejoin="miter" d="M -0.000146964 3.001298 L 25.193973 2.997825 " stroke="#1f2533" stroke-width="6" stroke-opacity="1" stroke-miterlimit="4"/><g clip-path="url(#b4a4d661a1)"><path stroke-linecap="butt" transform="matrix(0.553606, 0.523114, -0.51494, 0.544956, 97.629855, 337.714559)" fill="none" stroke-linejoin="miter" d="M -0.000736677 2.997456 L 20.674718 2.998917 " stroke="#1f2533" stroke-width="6" stroke-opacity="1" stroke-miterlimit="4"/></g><path stroke-linecap="butt" transform="matrix(0.536875, 0.537718, -0.530576, 0.529744, 176.998016, 288.923229)" fill="none" stroke-linejoin="miter" d="M -0.000725578 2.999334 L 19.748763 3.002046 " stroke="#1f2533" stroke-width="6" stroke-opacity="1" stroke-miterlimit="4"/><path stroke-linecap="butt" transform="matrix(0.751675, 0, 0, 0.74976, 403.694752, 349.030017)" fill="none" stroke-linejoin="miter" d="M 0.000745184 3.002604 L 91.764532 3.002604 " stroke="#ffbd59" stroke-width="6" stroke-opacity="1" stroke-miterlimit="4"/><path stroke-linecap="butt" transform="matrix(0.751675, 0, 0, 0.74976, 503.368159, 347.337217)" fill="none" stroke-linejoin="miter" d="M -0.00129191 2.999252 L 91.767692 2.999252 " stroke="#ffbd59" stroke-width="6" stroke-opacity="1" stroke-miterlimit="4"/><g clip-path="url(#d468301d58)"><path stroke-linecap="butt" transform="matrix(0.0037978, 0.755763, -0.749751, 0.00376759, 393.623468, 299.290214)" fill="none" stroke-linejoin="miter" d="M -0.000967946 2.998949 L 54.574498 2.999263 " stroke="#ffbd59" stroke-width="6" stroke-opacity="1" stroke-miterlimit="4"/></g><g clip-path="url(#5d2c6c5e6a)"><path stroke-linecap="butt" transform="matrix(0.00352188, 0.747336, -0.749752, 0.00353327, 497.053959, 299.288869)" fill="none" stroke-linejoin="miter" d="M 0.0017567 3.000029 L 58.198043 3.002477 " stroke="#ffbd59" stroke-width="6" stroke-opacity="1" stroke-miterlimit="4"/></g><g clip-path="url(#e7f012bb11)"><path stroke-linecap="butt" transform="matrix(0.015184, 0.755403, -0.749609, 0.0150675, 584.286636, 299.25432)" fill="none" stroke-linejoin="miter" d="M 0.00169835 2.998362 L 54.587597 2.999304 " stroke="#ffbd59" stroke-width="6" stroke-opacity="1" stroke-miterlimit="4"/></g><path stroke-linecap="butt" transform="matrix(0.000000000000000046, 0.749901, -0.74976, 0.000000000000000046, 601.615034, 289.421985)" fill="none" stroke-linejoin="miter" d="M -0.000146228 2.998086 L 82.98993 2.998086 " stroke="#ffbd59" stroke-width="6" stroke-opacity="1" stroke-miterlimit="4"/><path stroke-linecap="butt" transform="matrix(0.000000000000000046, 0.749901, -0.74976, 0.000000000000000046, 661.095105, 289.058545)" fill="none" stroke-linejoin="miter" d="M 0.0000645422 2.997556 L 82.990141 2.997556 " stroke="#ffbd59" stroke-width="6" stroke-opacity="1" stroke-miterlimit="4"/><g clip-path="url(#02cf95ba42)"><path stroke-linecap="butt" transform="matrix(0.533536, 0.524513, -0.52562, 0.534662, 598.887404, 287.455712)" fill="none" stroke-linejoin="miter" d="M -0.00289373 3.000771 L 111.24628 3.000668 " stroke="#ffbd59" stroke-width="6" stroke-opacity="1" stroke-miterlimit="4"/></g><path stroke-linecap="butt" transform="matrix(-0.575491, 0.493329, -0.487966, -0.569236, 405.156635, 291.128049)" fill="none" stroke-linejoin="miter" d="M 0.00264732 2.999602 L 22.753488 3.001339 " stroke="#ffbd59" stroke-width="6" stroke-opacity="1" stroke-miterlimit="4"/><g clip-path="url(#efef030a8e)"><path stroke-linecap="butt" transform="matrix(-0.48836, 0.557826, -0.564121, -0.493871, 483.180198, 342.49206)" fill="none" stroke-linejoin="miter" d="M 0.00089388 2.998437 L 18.203008 3.001004 " stroke="#ffbd59" stroke-width="6" stroke-opacity="1" stroke-miterlimit="4"/></g><g clip-path="url(#686431f925)"><path stroke-linecap="butt" transform="matrix(-0.538391, 0.513748, -0.517601, -0.542429, 585.049643, 339.696466)" fill="none" stroke-linejoin="miter" d="M 0.00177726 2.999592 L 25.192273 2.999888 " stroke="#ffbd59" stroke-width="6" stroke-opacity="1" stroke-miterlimit="4"/></g><path stroke-linecap="butt" transform="matrix(-0.538391, 0.513748, -0.517601, -0.542429, 509.385948, 289.111184)" fill="none" stroke-linejoin="miter" d="M 0.00152642 3.000563 L 25.192023 3.000859 " stroke="#ffbd59" stroke-width="6" stroke-opacity="1" stroke-miterlimit="4"/><g clip-path="url(#d8351f16c5)"><path stroke-linecap="butt" transform="matrix(0.539477, 0.529512, -0.525196, 0.535079, 393.056762, 338.053583)" fill="none" stroke-linejoin="miter" d="M 0.000569991 3.00193 L 22.824393 3.002759 " stroke="#ffbd59" stroke-width="6" stroke-opacity="1" stroke-miterlimit="4"/></g><path stroke-linecap="butt" transform="matrix(0.487084, 0.594455, -0.579942, 0.475192, 466.815477, 287.340333)" fill="none" stroke-linejoin="miter" d="M -0.00146643 3.001236 L 15.619227 2.999876 " stroke="#ffbd59" stroke-width="6" stroke-opacity="1" stroke-miterlimit="4"/><g clip-path="url(#107649ef0e)"><path stroke-linecap="butt" transform="matrix(0.536875, 0.537718, -0.530576, 0.529744, 495.797158, 337.763187)" fill="none" stroke-linejoin="miter" d="M 0.000691313 2.997679 L 19.750179 3.000391 " stroke="#ffbd59" stroke-width="6" stroke-opacity="1" stroke-miterlimit="4"/></g><path stroke-linecap="butt" transform="matrix(0.496704, 0.545436, -0.554346, 0.504818, 573.832785, 287.908473)" fill="none" stroke-linejoin="miter" d="M -0.00267783 3.000809 L 22.370881 3.000379 " stroke="#ffbd59" stroke-width="6" stroke-opacity="1" stroke-miterlimit="4"/><path stroke-linecap="butt" transform="matrix(0.0138558, 0.778532, -0.749642, 0.0133417, 474.642908, 296.623644)" fill="none" stroke-linejoin="miter" d="M 0.000518193 2.999278 L 7.707296 3.001032 " stroke="#ffbd59" stroke-width="6" stroke-opacity="1" stroke-miterlimit="4"/><path stroke-linecap="butt" transform="matrix(0.000000000000000044, 0.717528, -0.74976, 0.000000000000000046, 482.251874, 336.580706)" fill="none" stroke-linejoin="miter" d="M 0.00184664 2.998249 L 8.35845 2.998249 " stroke="#ffbd59" stroke-width="6" stroke-opacity="1" stroke-miterlimit="4"/></svg>