<svg xmlns="http://www.w3.org/2000/svg" xmlns:xlink="http://www.w3.org/1999/xlink" width="80" zoomAndPan="magnify" viewBox="0 0 60 60" height="80" preserveAspectRatio="xMidYMid meet" version="1.0"><path fill="#f2a536" d="M 57.21875 31.644531 L 42.640625 31.644531 L 42.640625 21.296875 L 57.21875 21.296875 Z M 57.21875 44.632812 L 50.230469 44.632812 L 50.230469 34.148438 L 57.21875 34.148438 Z M 57.21875 57.496094 L 40.574219 57.496094 L 40.574219 47.140625 L 57.21875 47.140625 Z M 38.070312 57.496094 L 21.71875 57.496094 L 21.71875 47.140625 L 38.070312 47.140625 Z M 19.214844 57.496094 L 2.929688 57.496094 L 2.929688 47.140625 L 19.214844 47.140625 Z M 2.929688 34.148438 L 10.015625 34.148438 L 10.015625 44.632812 L 2.925781 44.632812 Z M 12.523438 34.148438 L 28.871094 34.148438 L 28.871094 44.632812 L 12.519531 44.632812 Z M 31.375 34.148438 L 47.726562 34.148438 L 47.726562 44.632812 L 31.375 44.632812 Z M 58.472656 18.789062 L 41.390625 18.789062 C 40.695312 18.789062 40.132812 19.347656 40.132812 20.039062 L 40.132812 31.640625 L 1.679688 31.640625 C 0.980469 31.640625 0.421875 32.199219 0.421875 32.890625 L 0.421875 58.75 C 0.421875 59.441406 0.980469 60 1.679688 60 L 58.472656 60 C 59.164062 60 59.722656 59.441406 59.722656 58.75 L 59.722656 20.039062 C 59.722656 19.707031 59.597656 19.390625 59.363281 19.15625 C 59.121094 18.921875 58.800781 18.789062 58.472656 18.789062 Z M 2.777344 2.507812 L 16.003906 2.507812 L 16.003906 12.523438 L 2.777344 12.523438 Z M 1.523438 15.03125 L 17.257812 15.03125 C 17.953125 15.03125 18.511719 14.472656 18.511719 13.78125 L 18.511719 1.25 C 18.511719 0.558594 17.953125 0 17.257812 0 L 1.523438 0 C 0.832031 0 0.273438 0.558594 0.273438 1.25 L 0.273438 13.773438 C 0.273438 14.105469 0.402344 14.429688 0.640625 14.664062 C 0.875 14.898438 1.195312 15.03125 1.523438 15.03125 Z M 9.328125 17.285156 C 8.640625 17.285156 8.078125 17.851562 8.078125 18.542969 L 8.078125 24.511719 L 6.136719 22.570312 C 5.640625 22.109375 4.875 22.121094 4.394531 22.601562 C 3.921875 23.074219 3.90625 23.84375 4.363281 24.335938 L 8.445312 28.421875 C 8.933594 28.90625 9.722656 28.90625 10.210938 28.421875 L 14.296875 24.335938 C 14.554688 24.109375 14.707031 23.785156 14.71875 23.4375 C 14.722656 23.097656 14.597656 22.761719 14.351562 22.515625 C 14.105469 22.269531 13.769531 22.136719 13.425781 22.148438 C 13.082031 22.160156 12.757812 22.3125 12.53125 22.570312 L 10.585938 24.511719 L 10.585938 18.542969 C 10.585938 17.851562 10.019531 17.289062 9.332031 17.285156 Z M 22.746094 10.316406 L 35.699219 10.316406 L 35.699219 20.347656 L 22.746094 20.347656 Z M 21.496094 22.855469 L 36.957031 22.855469 C 37.644531 22.855469 38.210938 22.292969 38.210938 21.601562 L 38.210938 9.066406 C 38.210938 8.375 37.644531 7.808594 36.957031 7.808594 L 21.496094 7.808594 C 20.800781 7.808594 20.242188 8.375 20.242188 9.066406 L 20.242188 21.601562 C 20.242188 21.933594 20.371094 22.253906 20.609375 22.488281 C 20.84375 22.722656 21.164062 22.855469 21.496094 22.855469 " fill-opacity="1" fill-rule="nonzero"/></svg>