<svg xmlns="http://www.w3.org/2000/svg" xmlns:xlink="http://www.w3.org/1999/xlink" width="80" zoomAndPan="magnify" viewBox="0 0 60 60" height="80" preserveAspectRatio="xMidYMid meet" version="1.0"><defs><clipPath id="1f75ecd9bb"><path d="M 6.824219 0 L 53.324219 0 L 53.324219 60 L 6.824219 60 Z M 6.824219 0 " clip-rule="nonzero"/></clipPath></defs><g clip-path="url(#1f75ecd9bb)"><path fill="#f2a536" d="M 51.957031 5.464844 L 42.382812 5.464844 L 42.382812 4.101562 C 42.382812 3.347656 41.769531 2.738281 41.015625 2.738281 L 34.792969 2.738281 C 33.828125 1.074219 32.039062 0.0117188 30.074219 0.0117188 C 28.113281 0.0117188 26.320312 1.074219 25.355469 2.738281 L 19.132812 2.738281 C 18.378906 2.738281 17.765625 3.347656 17.765625 4.101562 L 17.765625 5.464844 L 8.191406 5.464844 C 7.4375 5.464844 6.824219 6.074219 6.824219 6.828125 L 6.824219 58.625 C 6.824219 59.378906 7.4375 59.988281 8.191406 59.988281 L 51.957031 59.988281 C 52.710938 59.988281 53.324219 59.378906 53.324219 58.625 L 53.324219 6.828125 C 53.324219 6.074219 52.710938 5.464844 51.957031 5.464844 Z M 20.5 5.464844 L 26.222656 5.464844 C 26.800781 5.464844 27.316406 5.097656 27.511719 4.554688 C 28.277344 2.175781 31.871094 2.171875 32.640625 4.554688 C 32.832031 5.097656 33.347656 5.464844 33.925781 5.464844 L 39.648438 5.464844 L 39.648438 8.1875 L 20.5 8.1875 Z M 50.589844 57.261719 L 9.558594 57.261719 L 9.558594 8.1875 L 17.765625 8.1875 L 17.765625 9.550781 C 17.765625 10.304688 18.378906 10.914062 19.132812 10.914062 L 41.015625 10.914062 C 41.769531 10.914062 42.382812 10.304688 42.382812 9.550781 L 42.382812 8.1875 L 50.589844 8.1875 Z M 50.589844 57.261719 " fill-opacity="1" fill-rule="nonzero"/></g><path fill="#f2a536" d="M 19.132812 40.90625 C 13.722656 41.046875 13.726562 48.945312 19.132812 49.085938 C 24.542969 48.941406 24.542969 41.046875 19.132812 40.90625 Z M 19.132812 46.359375 C 17.347656 46.347656 17.347656 43.640625 19.132812 43.632812 C 20.921875 43.640625 20.921875 46.351562 19.132812 46.359375 Z M 19.132812 46.359375 " fill-opacity="1" fill-rule="nonzero"/><path fill="#f2a536" d="M 43.351562 41.304688 C 42.816406 40.773438 41.953125 40.773438 41.417969 41.304688 L 40.332031 42.386719 L 39.246094 41.304688 C 38.714844 40.773438 37.847656 40.773438 37.3125 41.304688 C 36.777344 41.835938 36.777344 42.699219 37.3125 43.230469 L 38.398438 44.3125 L 37.3125 45.394531 C 36.777344 45.925781 36.777344 46.789062 37.3125 47.320312 C 37.847656 47.855469 38.714844 47.855469 39.246094 47.320312 L 40.332031 46.242188 L 41.417969 47.320312 C 41.953125 47.855469 42.816406 47.855469 43.351562 47.320312 C 43.886719 46.789062 43.886719 45.925781 43.351562 45.394531 L 42.265625 44.3125 L 43.351562 43.230469 C 43.886719 42.699219 43.886719 41.835938 43.351562 41.304688 Z M 43.351562 41.304688 " fill-opacity="1" fill-rule="nonzero"/><path fill="#f2a536" d="M 24.203125 24.945312 C 23.667969 24.414062 22.804688 24.414062 22.269531 24.945312 L 21.183594 26.027344 L 20.101562 24.945312 C 19.566406 24.414062 18.703125 24.414062 18.167969 24.945312 C 17.632812 25.480469 17.632812 26.339844 18.167969 26.875 L 19.25 27.957031 L 18.167969 29.035156 C 17.632812 29.570312 17.632812 30.429688 18.167969 30.964844 C 18.703125 31.496094 19.566406 31.496094 20.101562 30.964844 L 21.183594 29.882812 L 22.269531 30.964844 C 22.804688 31.496094 23.667969 31.496094 24.203125 30.964844 C 24.738281 30.429688 24.738281 29.570312 24.203125 29.035156 L 23.121094 27.957031 L 24.203125 26.875 C 24.738281 26.339844 24.738281 25.480469 24.203125 24.945312 Z M 24.203125 24.945312 " fill-opacity="1" fill-rule="nonzero"/><path fill="#f2a536" d="M 41.984375 19.496094 C 41.476562 18.96875 40.558594 18.96875 40.050781 19.496094 C 40.050781 19.496094 37.316406 22.21875 37.316406 22.21875 C 36.054688 23.488281 37.980469 25.402344 39.25 24.148438 C 39.25 24.148438 39.648438 23.75 39.648438 23.75 C 40.007812 32.039062 34.191406 39.417969 25.972656 40.882812 C 24.183594 40.980469 24.171875 43.582031 25.972656 43.632812 C 35.703125 42.207031 42.769531 33.507812 42.382812 23.75 C 42.382812 23.75 42.785156 24.148438 42.785156 24.148438 C 44.050781 25.40625 45.980469 23.484375 44.71875 22.21875 C 44.71875 22.21875 41.984375 19.496094 41.984375 19.496094 Z M 41.984375 19.496094 " fill-opacity="1" fill-rule="nonzero"/></svg>