<svg xmlns="http://www.w3.org/2000/svg" xmlns:xlink="http://www.w3.org/1999/xlink" width="80" zoomAndPan="magnify" viewBox="0 0 60 60" height="80" preserveAspectRatio="xMidYMid meet" version="1.0"><defs><clipPath id="76f5bc04a1"><path d="M 0 2.074219 L 60 2.074219 L 60 59.824219 L 0 59.824219 Z M 0 2.074219 " clip-rule="nonzero"/></clipPath></defs><g clip-path="url(#76f5bc04a1)"><path fill="#f2a536" d="M 59.027344 57.898438 L 56.335938 57.898438 L 56.335938 20.132812 C 56.335938 19.601562 55.90625 19.171875 55.375 19.171875 L 30.964844 19.171875 L 30.964844 3.035156 C 30.964844 2.503906 30.53125 2.074219 30 2.074219 L 4.625 2.074219 C 4.09375 2.074219 3.660156 2.503906 3.660156 3.035156 L 3.660156 57.898438 L 0.972656 57.898438 C 0.441406 57.898438 0.0117188 58.328125 0.0117188 58.859375 C 0.0117188 59.390625 0.441406 59.820312 0.972656 59.820312 L 59.027344 59.820312 C 59.558594 59.820312 59.992188 59.390625 59.992188 58.859375 C 59.988281 58.328125 59.558594 57.898438 59.027344 57.898438 Z M 5.589844 3.996094 L 29.035156 3.996094 L 29.035156 57.898438 L 5.589844 57.898438 Z M 30.964844 57.898438 L 30.964844 21.09375 L 54.410156 21.09375 L 54.410156 57.898438 Z M 14.953125 47.296875 L 10.347656 47.296875 C 9.8125 47.296875 9.382812 47.726562 9.382812 48.257812 L 9.382812 53.203125 C 9.382812 53.734375 9.8125 54.164062 10.347656 54.164062 L 14.953125 54.164062 C 15.484375 54.164062 15.917969 53.734375 15.917969 53.203125 L 15.917969 48.257812 C 15.917969 47.726562 15.484375 47.296875 14.953125 47.296875 Z M 13.988281 52.242188 L 11.308594 52.242188 L 11.308594 49.21875 L 13.988281 49.21875 Z M 14.953125 7.726562 L 10.347656 7.726562 C 9.8125 7.726562 9.382812 8.15625 9.382812 8.6875 L 9.382812 13.632812 C 9.382812 14.164062 9.8125 14.597656 10.347656 14.597656 L 14.953125 14.597656 C 15.484375 14.597656 15.917969 14.164062 15.917969 13.632812 L 15.917969 8.6875 C 15.917969 8.15625 15.484375 7.726562 14.953125 7.726562 Z M 13.988281 12.671875 L 11.308594 12.671875 L 11.308594 9.648438 L 13.988281 9.648438 Z M 24.28125 27.511719 L 19.675781 27.511719 C 19.140625 27.511719 18.710938 27.941406 18.710938 28.472656 L 18.710938 33.421875 C 18.710938 33.949219 19.140625 34.382812 19.675781 34.382812 L 24.28125 34.382812 C 24.8125 34.382812 25.246094 33.949219 25.246094 33.421875 L 25.246094 28.472656 C 25.246094 27.941406 24.8125 27.511719 24.28125 27.511719 Z M 23.316406 32.457031 L 20.636719 32.457031 L 20.636719 29.433594 L 23.316406 29.433594 Z M 14.953125 17.617188 L 10.347656 17.617188 C 9.8125 17.617188 9.382812 18.050781 9.382812 18.578125 L 9.382812 23.527344 C 9.382812 24.058594 9.8125 24.488281 10.347656 24.488281 L 14.953125 24.488281 C 15.484375 24.488281 15.917969 24.058594 15.917969 23.527344 L 15.917969 18.578125 C 15.917969 18.050781 15.484375 17.617188 14.953125 17.617188 Z M 13.988281 22.566406 L 11.308594 22.566406 L 11.308594 19.542969 L 13.988281 19.542969 Z M 14.953125 37.40625 L 10.347656 37.40625 C 9.8125 37.40625 9.382812 37.835938 9.382812 38.367188 L 9.382812 43.3125 C 9.382812 43.84375 9.8125 44.273438 10.347656 44.273438 L 14.953125 44.273438 C 15.484375 44.273438 15.917969 43.84375 15.917969 43.3125 L 15.917969 38.367188 C 15.917969 37.835938 15.484375 37.40625 14.953125 37.40625 Z M 13.988281 42.351562 L 11.308594 42.351562 L 11.308594 39.328125 L 13.988281 39.328125 Z M 14.953125 27.511719 L 10.347656 27.511719 C 9.8125 27.511719 9.382812 27.941406 9.382812 28.472656 L 9.382812 33.421875 C 9.382812 33.949219 9.8125 34.382812 10.347656 34.382812 L 14.953125 34.382812 C 15.484375 34.382812 15.917969 33.949219 15.917969 33.421875 L 15.917969 28.472656 C 15.917969 27.941406 15.484375 27.511719 14.953125 27.511719 Z M 13.988281 32.457031 L 11.308594 32.457031 L 11.308594 29.433594 L 13.988281 29.433594 Z M 24.28125 37.40625 L 19.675781 37.40625 C 19.140625 37.40625 18.710938 37.835938 18.710938 38.367188 L 18.710938 43.3125 C 18.710938 43.84375 19.140625 44.273438 19.675781 44.273438 L 24.28125 44.273438 C 24.8125 44.273438 25.246094 43.84375 25.246094 43.3125 L 25.246094 38.367188 C 25.246094 37.835938 24.8125 37.40625 24.28125 37.40625 Z M 23.316406 42.351562 L 20.636719 42.351562 L 20.636719 39.328125 L 23.316406 39.328125 Z M 24.28125 17.617188 L 19.675781 17.617188 C 19.140625 17.617188 18.710938 18.050781 18.710938 18.578125 L 18.710938 23.527344 C 18.710938 24.058594 19.140625 24.488281 19.675781 24.488281 L 24.28125 24.488281 C 24.8125 24.488281 25.246094 24.058594 25.246094 23.527344 L 25.246094 18.578125 C 25.246094 18.050781 24.8125 17.617188 24.28125 17.617188 Z M 23.316406 22.566406 L 20.636719 22.566406 L 20.636719 19.542969 L 23.316406 19.542969 Z M 24.28125 7.726562 L 19.675781 7.726562 C 19.140625 7.726562 18.710938 8.15625 18.710938 8.6875 L 18.710938 13.632812 C 18.710938 14.164062 19.140625 14.597656 19.675781 14.597656 L 24.28125 14.597656 C 24.8125 14.597656 25.246094 14.164062 25.246094 13.632812 L 25.246094 8.6875 C 25.246094 8.15625 24.8125 7.726562 24.28125 7.726562 Z M 23.316406 12.671875 L 20.636719 12.671875 L 20.636719 9.648438 L 23.316406 9.648438 Z M 24.28125 47.296875 L 19.675781 47.296875 C 19.140625 47.296875 18.710938 47.726562 18.710938 48.257812 L 18.710938 53.203125 C 18.710938 53.734375 19.140625 54.164062 19.675781 54.164062 L 24.28125 54.164062 C 24.8125 54.164062 25.246094 53.734375 25.246094 53.203125 L 25.246094 48.257812 C 25.246094 47.726562 24.8125 47.296875 24.28125 47.296875 Z M 23.316406 52.242188 L 20.636719 52.242188 L 20.636719 49.21875 L 23.316406 49.21875 Z M 49.652344 36.0625 L 45.046875 36.0625 C 44.515625 36.0625 44.082031 36.492188 44.082031 37.023438 L 44.082031 41.96875 C 44.082031 42.5 44.515625 42.929688 45.046875 42.929688 L 49.652344 42.929688 C 50.1875 42.929688 50.617188 42.5 50.617188 41.96875 L 50.617188 37.023438 C 50.617188 36.492188 50.1875 36.0625 49.652344 36.0625 Z M 48.691406 41.007812 L 46.011719 41.007812 L 46.011719 37.984375 L 48.691406 37.984375 Z M 49.652344 26.167969 L 45.046875 26.167969 C 44.515625 26.167969 44.082031 26.601562 44.082031 27.132812 L 44.082031 32.078125 C 44.082031 32.609375 44.515625 33.039062 45.046875 33.039062 L 49.652344 33.039062 C 50.1875 33.039062 50.617188 32.609375 50.617188 32.078125 L 50.617188 27.132812 C 50.617188 26.601562 50.1875 26.167969 49.652344 26.167969 Z M 48.691406 31.113281 L 46.011719 31.113281 L 46.011719 28.089844 L 48.691406 28.089844 Z M 49.652344 45.953125 L 45.046875 45.953125 C 44.515625 45.953125 44.082031 46.382812 44.082031 46.914062 L 44.082031 51.863281 C 44.082031 52.394531 44.515625 52.824219 45.046875 52.824219 L 49.652344 52.824219 C 50.1875 52.824219 50.617188 52.394531 50.617188 51.863281 L 50.617188 46.914062 C 50.617188 46.382812 50.1875 45.953125 49.652344 45.953125 Z M 48.691406 50.902344 L 46.011719 50.902344 L 46.011719 47.875 L 48.691406 47.875 Z M 40.328125 45.953125 L 35.71875 45.953125 C 35.1875 45.953125 34.757812 46.382812 34.757812 46.914062 L 34.757812 51.863281 C 34.757812 52.394531 35.1875 52.824219 35.71875 52.824219 L 40.328125 52.824219 C 40.859375 52.824219 41.292969 52.394531 41.292969 51.863281 L 41.292969 46.914062 C 41.292969 46.382812 40.859375 45.953125 40.328125 45.953125 Z M 39.363281 50.902344 L 36.683594 50.902344 L 36.683594 47.875 L 39.363281 47.875 Z M 40.328125 36.0625 L 35.71875 36.0625 C 35.1875 36.0625 34.757812 36.492188 34.757812 37.023438 L 34.757812 41.96875 C 34.757812 42.5 35.1875 42.929688 35.71875 42.929688 L 40.328125 42.929688 C 40.859375 42.929688 41.292969 42.5 41.292969 41.96875 L 41.292969 37.023438 C 41.292969 36.492188 40.859375 36.0625 40.328125 36.0625 Z M 39.363281 41.007812 L 36.683594 41.007812 L 36.683594 37.984375 L 39.363281 37.984375 Z M 40.328125 26.167969 L 35.71875 26.167969 C 35.1875 26.167969 34.757812 26.601562 34.757812 27.132812 L 34.757812 32.078125 C 34.757812 32.609375 35.1875 33.039062 35.71875 33.039062 L 40.328125 33.039062 C 40.859375 33.039062 41.292969 32.609375 41.292969 32.078125 L 41.292969 27.132812 C 41.292969 26.601562 40.859375 26.167969 40.328125 26.167969 Z M 39.363281 31.113281 L 36.683594 31.113281 L 36.683594 28.089844 L 39.363281 28.089844 Z M 39.363281 31.113281 " fill-opacity="1" fill-rule="nonzero"/></g></svg>