<svg xmlns="http://www.w3.org/2000/svg" xmlns:xlink="http://www.w3.org/1999/xlink" width="196" zoomAndPan="magnify" viewBox="0 0 147 17.999999" height="24" preserveAspectRatio="xMidYMid meet" version="1.0"><defs><clipPath id="58459eb039"><path d="M 2.117188 1.558594 L 19.234375 1.558594 L 19.234375 16.484375 L 2.117188 16.484375 Z M 2.117188 1.558594 " clip-rule="nonzero"/></clipPath><clipPath id="5567ebb0e8"><path d="M 10.507812 15.609375 L 10.523438 15.765625 L 10.660156 16.050781 L 10.660156 15.765625 L 10.851562 15.726562 L 11.136719 15.613281 L 10.851562 15.613281 L 10.851562 2.578125 L 18.414062 2.578125 L 18.414062 2.867188 L 18.414062 2.578125 L 18.570312 2.5625 L 18.855469 2.425781 L 18.570312 2.425781 L 18.53125 2.234375 L 18.417969 1.949219 L 18.417969 2.234375 L 2.949219 2.234375 L 2.792969 2.253906 L 2.507812 2.386719 L 2.792969 2.386719 L 2.832031 2.578125 L 2.945312 2.867188 L 2.945312 2.578125 L 10.507812 2.578125 L 10.507812 15.609375 L 10.222656 15.609375 L 10.507812 15.609375 M 9.929688 15.609375 L 9.929688 2.867188 L 10.21875 2.867188 L 10.21875 3.15625 L 2.949219 3.15625 C 2.472656 3.15625 2.21875 2.84375 2.21875 2.390625 C 2.21875 1.9375 2.496094 1.660156 2.949219 1.660156 L 18.414062 1.660156 C 18.890625 1.660156 19.144531 1.96875 19.144531 2.425781 C 19.144531 2.882812 18.867188 3.15625 18.414062 3.15625 L 11.140625 3.15625 L 11.140625 2.867188 L 11.425781 2.867188 L 11.425781 15.609375 C 11.425781 16.082031 11.117188 16.335938 10.660156 16.335938 C 10.203125 16.335938 9.929688 16.0625 9.929688 15.609375 " clip-rule="nonzero"/></clipPath><clipPath id="3f82c74eaf"><path d="M 21 1.558594 L 41.921875 1.558594 L 41.921875 16.484375 L 21 16.484375 Z M 21 1.558594 " clip-rule="nonzero"/></clipPath><clipPath id="98e372741c"><path d="M 21.59375 4.839844 L 21.59375 13.179688 L 21.308594 13.179688 L 21.59375 13.179688 L 21.609375 13.273438 L 21.4375 13.511719 L 21.640625 13.308594 L 24.050781 15.738281 L 23.847656 15.941406 L 24.050781 15.738281 L 24.074219 15.765625 L 24.179688 16.050781 L 24.179688 15.765625 L 38.503906 15.765625 L 38.503906 16.050781 L 38.503906 15.765625 L 38.59375 15.753906 L 38.820312 15.941406 L 38.617188 15.730469 L 41.167969 13.292969 C 41.199219 13.261719 41.214844 13.234375 41.214844 13.179688 L 41.503906 13.179688 L 41.214844 13.179688 L 41.214844 4.839844 L 41.503906 4.839844 L 41.214844 4.839844 L 41.207031 4.773438 L 41.375 4.527344 L 41.167969 4.726562 L 38.78125 2.285156 C 38.753906 2.253906 38.722656 2.238281 38.667969 2.238281 L 24.199219 2.238281 L 24.097656 2.257812 L 23.867188 2.078125 L 24.070312 2.28125 L 21.640625 4.710938 C 21.613281 4.738281 21.59375 4.769531 21.59375 4.839844 L 21.308594 4.839844 L 21.59375 4.839844 M 21.019531 4.839844 L 21.082031 4.449219 L 21.433594 4.507812 L 21.230469 4.304688 L 23.660156 1.875 C 23.804688 1.726562 23.992188 1.664062 24.195312 1.664062 L 38.667969 1.664062 C 38.882812 1.664062 39.074219 1.746094 39.214844 1.90625 L 38.996094 2.09375 L 39.203125 1.894531 L 41.589844 4.335938 C 41.710938 4.476562 41.789062 4.648438 41.789062 4.839844 L 41.789062 13.179688 C 41.789062 13.394531 41.707031 13.585938 41.542969 13.730469 L 41.355469 13.511719 L 41.554688 13.71875 L 38.988281 16.171875 C 38.84375 16.28125 38.683594 16.339844 38.503906 16.339844 L 24.179688 16.339844 C 23.988281 16.339844 23.792969 16.292969 23.644531 16.148438 L 21.222656 13.703125 C 21.09375 13.554688 21.019531 13.375 21.019531 13.179688 L 21.019531 4.839844 M 22.023438 4.816406 L 24.257812 2.582031 L 38.59375 2.582031 L 40.871094 4.917969 L 40.871094 13.097656 L 38.449219 15.417969 L 24.222656 15.417969 L 21.941406 13.121094 L 21.941406 4.898438 L 22.023438 4.816406 M 22.429688 5.222656 L 22.226562 5.019531 L 22.515625 5.019531 L 22.515625 13 L 22.226562 13 L 22.429688 12.796875 L 24.542969 14.929688 L 24.339844 15.132812 L 24.339844 14.84375 L 38.332031 14.84375 L 38.332031 15.132812 L 38.132812 14.921875 L 40.386719 12.765625 L 40.585938 12.976562 L 40.300781 12.976562 L 40.300781 5.03125 L 40.585938 5.03125 L 40.378906 5.234375 L 38.261719 3.070312 L 38.46875 2.867188 L 38.46875 3.15625 L 24.375 3.15625 L 24.375 2.867188 L 24.578125 3.070312 L 22.429688 5.222656 " clip-rule="nonzero"/></clipPath><clipPath id="9ea1e6e2b6"><path d="M 43.113281 1.558594 L 66.996094 1.558594 L 66.996094 16.484375 L 43.113281 16.484375 Z M 43.113281 1.558594 " clip-rule="nonzero"/></clipPath><clipPath id="01eb428405"><path d="M 43.972656 2.273438 L 43.78125 2.308594 L 43.496094 2.421875 L 43.78125 2.421875 L 43.78125 15.589844 L 43.496094 15.589844 L 43.78125 15.589844 L 43.796875 15.671875 L 43.644531 15.917969 L 43.832031 15.699219 L 43.925781 15.753906 L 43.957031 16.042969 L 43.957031 15.753906 L 44.082031 15.734375 L 44.289062 15.9375 L 44.085938 15.734375 L 54.921875 4.894531 L 55.273438 4.894531 L 66.089844 15.734375 L 65.886719 15.9375 L 66.070312 15.714844 L 66.140625 15.753906 L 66.203125 16.042969 L 66.203125 15.753906 L 66.292969 15.742188 L 66.53125 15.914062 L 66.34375 15.699219 L 66.394531 15.640625 L 66.679688 15.585938 L 66.394531 15.585938 L 66.394531 2.421875 L 66.679688 2.421875 L 66.394531 2.421875 L 66.375 2.273438 L 66.238281 1.984375 L 66.238281 2.273438 L 66.046875 2.308594 L 65.761719 2.421875 L 66.046875 2.421875 L 66.046875 15.207031 L 55.445312 4.585938 C 55.441406 4.578125 55.425781 4.554688 55.347656 4.554688 L 54.84375 4.554688 L 54.757812 4.570312 L 54.730469 4.605469 L 44.128906 15.207031 L 44.128906 2.425781 L 44.414062 2.425781 L 44.128906 2.425781 L 44.113281 2.273438 L 43.976562 1.984375 L 43.976562 2.273438 M 43.976562 1.695312 C 44.429688 1.695312 44.707031 1.972656 44.707031 2.425781 L 44.707031 14.511719 L 44.417969 14.511719 L 44.214844 14.308594 L 54.316406 4.207031 L 54.519531 4.410156 L 54.304688 4.21875 L 54.636719 3.980469 L 55.351562 3.980469 C 55.5625 3.980469 55.765625 4.054688 55.902344 4.234375 L 55.675781 4.410156 L 55.878906 4.207031 L 65.960938 14.308594 L 65.761719 14.511719 L 65.472656 14.511719 L 65.472656 2.425781 C 65.472656 1.953125 65.785156 1.699219 66.242188 1.699219 C 66.695312 1.699219 66.96875 1.972656 66.96875 2.425781 L 66.96875 15.589844 C 66.96875 15.804688 66.886719 15.996094 66.722656 16.136719 L 66.402344 16.335938 L 66.203125 16.335938 C 66.023438 16.335938 65.851562 16.285156 65.710938 16.167969 L 65.695312 16.160156 L 54.949219 5.394531 L 55.152344 5.191406 L 55.152344 5.476562 L 55.042969 5.476562 L 55.042969 5.191406 L 55.246094 5.394531 L 44.472656 16.167969 C 44.328125 16.285156 44.148438 16.335938 43.960938 16.335938 L 43.597656 16.261719 L 43.457031 16.136719 C 43.292969 15.996094 43.210938 15.804688 43.210938 15.589844 L 43.210938 2.421875 C 43.210938 1.949219 43.523438 1.695312 43.980469 1.695312 L 43.976562 1.695312 " clip-rule="nonzero"/></clipPath><clipPath id="bc2fcd1f55"><path d="M 68.585938 1.558594 L 83.316406 1.558594 L 83.316406 16.484375 L 68.585938 16.484375 Z M 68.585938 1.558594 " clip-rule="nonzero"/></clipPath><clipPath id="6ab2ae6d58"><path d="M 69.441406 15.765625 L 69.632812 15.726562 L 69.917969 15.609375 L 69.632812 15.609375 L 69.632812 2.8125 L 82.230469 15.414062 L 82.027344 15.617188 L 82.230469 15.410156 L 82.285156 15.449219 L 82.332031 15.734375 L 82.332031 15.449219 L 82.4375 15.425781 L 82.441406 15.417969 L 82.5 15.285156 L 82.789062 15.261719 L 82.5 15.261719 L 82.488281 15.183594 L 82.660156 14.945312 L 82.457031 15.148438 L 69.585938 2.28125 L 69.789062 2.078125 L 69.585938 2.28125 L 69.523438 2.234375 L 69.476562 1.949219 L 69.476562 2.234375 L 69.285156 2.273438 L 69 2.410156 L 69.285156 2.410156 L 69.285156 15.609375 L 69 15.609375 L 69.285156 15.609375 L 69.304688 15.765625 L 69.4375 16.050781 L 69.4375 15.765625 M 69.4375 16.339844 C 68.984375 16.339844 68.710938 16.066406 68.710938 15.613281 L 68.710938 2.410156 C 68.710938 1.929688 69.007812 1.660156 69.476562 1.660156 L 69.851562 1.730469 L 82.863281 14.742188 C 83.003906 14.882812 83.078125 15.0625 83.078125 15.261719 L 83.015625 15.585938 L 82.683594 15.570312 L 82.925781 15.726562 L 82.558594 16.023438 L 82.328125 16.023438 C 82.136719 16.023438 81.964844 15.957031 81.824219 15.816406 L 69.714844 3.707031 L 69.917969 3.503906 L 70.203125 3.503906 L 70.203125 15.609375 C 70.203125 16.082031 69.894531 16.339844 69.4375 16.339844 M 82.511719 2.234375 L 82.320312 2.273438 L 82.035156 2.390625 L 82.320312 2.390625 L 82.320312 15.609375 L 82.035156 15.609375 L 82.320312 15.609375 L 82.339844 15.765625 L 82.472656 16.050781 L 82.472656 15.765625 L 82.664062 15.726562 L 82.953125 15.609375 L 82.664062 15.609375 L 82.664062 2.390625 L 82.953125 2.390625 L 82.664062 2.390625 L 82.648438 2.234375 L 82.511719 1.949219 L 82.511719 2.234375 M 82.511719 1.660156 C 82.964844 1.660156 83.242188 1.9375 83.242188 2.390625 L 83.242188 15.609375 C 83.242188 16.082031 82.929688 16.339844 82.472656 16.339844 C 82.015625 16.339844 81.742188 16.066406 81.742188 15.609375 L 81.742188 2.390625 C 81.742188 1.917969 82.054688 1.660156 82.507812 1.660156 L 82.511719 1.660156 " clip-rule="nonzero"/></clipPath><clipPath id="4dfc49caff"><path d="M 85 1.558594 L 105.804688 1.558594 L 105.804688 16.484375 L 85 16.484375 Z M 85 1.558594 " clip-rule="nonzero"/></clipPath><clipPath id="ad60c73952"><path d="M 105.050781 12.859375 L 104.859375 12.902344 L 104.574219 13.011719 L 104.859375 13.011719 L 104.859375 14.046875 L 103.414062 15.417969 L 88.246094 15.417969 L 85.925781 13.046875 L 85.925781 4.878906 L 88.242188 2.578125 L 101.929688 2.578125 L 103.308594 4.019531 L 103.308594 4.835938 L 103.023438 4.835938 L 103.308594 4.835938 L 103.328125 4.992188 L 103.460938 5.277344 L 103.460938 4.992188 L 103.652344 4.953125 L 103.941406 4.839844 L 103.652344 4.839844 L 103.652344 3.957031 L 103.941406 3.957031 L 103.652344 3.957031 L 103.644531 3.886719 L 103.8125 3.640625 L 103.605469 3.839844 L 102.105469 2.285156 C 102.074219 2.25 102.042969 2.234375 101.988281 2.234375 L 88.183594 2.234375 L 88.09375 2.25 L 87.851562 2.078125 L 88.054688 2.28125 L 85.609375 4.707031 C 85.605469 4.710938 85.582031 4.726562 85.582031 4.820312 L 85.292969 4.820312 L 85.582031 4.820312 L 85.582031 13.125 L 85.292969 13.125 L 85.582031 13.125 L 85.589844 13.195312 L 85.421875 13.4375 L 85.628906 13.238281 L 88.058594 15.726562 L 87.851562 15.925781 L 88.054688 15.722656 L 88.117188 15.765625 L 88.183594 16.054688 L 88.183594 15.765625 L 103.488281 15.765625 L 103.488281 16.054688 L 103.488281 15.765625 L 103.554688 15.757812 L 103.800781 15.929688 L 103.601562 15.71875 L 105.15625 14.226562 C 105.191406 14.199219 105.207031 14.171875 105.207031 14.113281 L 105.492188 14.113281 L 105.207031 14.113281 L 105.207031 13.011719 L 105.492188 13.011719 L 105.207031 13.011719 L 105.1875 12.859375 L 105.050781 12.574219 L 105.050781 12.859375 M 105.050781 12.285156 C 105.503906 12.285156 105.777344 12.558594 105.777344 13.011719 L 105.777344 14.109375 C 105.777344 14.324219 105.695312 14.515625 105.535156 14.65625 L 105.347656 14.4375 L 105.546875 14.648438 L 103.988281 16.140625 C 103.847656 16.261719 103.675781 16.339844 103.488281 16.339844 L 88.183594 16.339844 C 87.980469 16.339844 87.796875 16.273438 87.648438 16.128906 L 85.207031 13.628906 C 85.082031 13.488281 85.003906 13.316406 85.003906 13.125 L 85.003906 4.820312 C 85.003906 4.617188 85.066406 4.414062 85.234375 4.273438 L 85.421875 4.488281 L 85.21875 4.285156 L 87.664062 1.863281 C 87.8125 1.734375 87.988281 1.664062 88.183594 1.664062 L 101.992188 1.664062 C 102.207031 1.664062 102.398438 1.746094 102.542969 1.90625 L 102.324219 2.09375 L 102.53125 1.894531 L 104.03125 3.453125 C 104.15625 3.59375 104.234375 3.765625 104.234375 3.957031 L 104.234375 4.839844 C 104.234375 5.3125 103.921875 5.570312 103.464844 5.570312 C 103.007812 5.570312 102.738281 5.292969 102.738281 4.839844 L 102.738281 4.136719 L 103.023438 4.136719 L 102.816406 4.335938 L 101.597656 3.066406 L 101.804688 2.867188 L 101.804688 3.152344 L 88.363281 3.152344 L 88.363281 2.867188 L 88.566406 3.070312 L 86.417969 5.203125 L 86.214844 5 L 86.5 5 L 86.5 12.929688 L 86.214844 12.929688 L 86.421875 12.730469 L 88.574219 14.933594 L 88.367188 15.132812 L 88.367188 14.84375 L 103.300781 14.84375 L 103.300781 15.132812 L 103.105469 14.921875 L 104.375 13.714844 L 104.574219 13.925781 L 104.285156 13.925781 L 104.285156 13.011719 C 104.285156 12.539062 104.601562 12.285156 105.054688 12.285156 L 105.050781 12.285156 " clip-rule="nonzero"/></clipPath><clipPath id="ffd1e369fd"><path d="M 107.394531 1.558594 L 128.292969 1.558594 L 128.292969 16.484375 L 107.394531 16.484375 Z M 107.394531 1.558594 " clip-rule="nonzero"/></clipPath><clipPath id="28177e6f96"><path d="M 108.007812 4.839844 L 108.007812 13.179688 L 107.722656 13.179688 L 108.007812 13.179688 L 108.023438 13.273438 L 107.851562 13.511719 L 108.054688 13.308594 L 110.464844 15.738281 L 110.261719 15.941406 L 110.464844 15.738281 L 110.488281 15.765625 L 110.59375 16.050781 L 110.59375 15.765625 L 124.921875 15.765625 L 124.921875 16.050781 L 124.921875 15.765625 L 125.007812 15.753906 L 125.234375 15.941406 L 125.035156 15.730469 L 127.582031 13.292969 C 127.617188 13.261719 127.628906 13.234375 127.628906 13.179688 L 127.917969 13.179688 L 127.628906 13.179688 L 127.628906 4.839844 L 127.917969 4.839844 L 127.628906 4.839844 L 127.621094 4.773438 L 127.789062 4.527344 L 127.582031 4.726562 L 125.199219 2.285156 C 125.167969 2.253906 125.136719 2.238281 125.085938 2.238281 L 110.613281 2.238281 L 110.511719 2.257812 L 110.28125 2.078125 L 110.484375 2.28125 L 108.054688 4.710938 C 108.027344 4.738281 108.007812 4.769531 108.007812 4.839844 L 107.722656 4.839844 L 108.007812 4.839844 M 107.433594 4.839844 L 107.5 4.449219 L 107.847656 4.507812 L 107.644531 4.304688 L 110.074219 1.875 C 110.222656 1.726562 110.40625 1.664062 110.609375 1.664062 L 125.085938 1.664062 C 125.300781 1.664062 125.492188 1.746094 125.636719 1.90625 L 125.417969 2.09375 L 125.625 1.894531 L 128.007812 4.335938 C 128.132812 4.476562 128.210938 4.648438 128.210938 4.839844 L 128.210938 13.179688 C 128.210938 13.394531 128.125 13.585938 127.964844 13.730469 L 127.777344 13.511719 L 127.976562 13.71875 L 125.410156 16.171875 C 125.265625 16.28125 125.101562 16.339844 124.921875 16.339844 L 110.59375 16.339844 C 110.402344 16.339844 110.207031 16.292969 110.058594 16.148438 L 107.636719 13.703125 C 107.507812 13.554688 107.4375 13.375 107.4375 13.179688 L 107.4375 4.839844 L 107.433594 4.839844 M 108.4375 4.816406 L 110.671875 2.582031 L 125.007812 2.582031 L 127.289062 4.917969 L 127.289062 13.097656 L 124.863281 15.417969 L 110.636719 15.417969 L 108.355469 13.121094 L 108.355469 4.898438 L 108.4375 4.816406 M 108.84375 5.222656 L 108.640625 5.019531 L 108.929688 5.019531 L 108.929688 13 L 108.640625 13 L 108.84375 12.796875 L 110.957031 14.929688 L 110.753906 15.132812 L 110.753906 14.84375 L 124.746094 14.84375 L 124.746094 15.132812 L 124.546875 14.921875 L 126.800781 12.765625 L 127 12.976562 L 126.714844 12.976562 L 126.714844 5.03125 L 127 5.03125 L 126.792969 5.234375 L 124.679688 3.070312 L 124.882812 2.867188 L 124.882812 3.15625 L 110.792969 3.15625 L 110.792969 2.867188 L 110.996094 3.070312 L 108.84375 5.222656 " clip-rule="nonzero"/></clipPath><clipPath id="276688c603"><path d="M 130.082031 1.558594 L 144.808594 1.558594 L 144.808594 16.484375 L 130.082031 16.484375 Z M 130.082031 1.558594 " clip-rule="nonzero"/></clipPath><clipPath id="382dca656d"><path d="M 130.980469 15.765625 L 131.171875 15.726562 L 131.457031 15.609375 L 131.171875 15.609375 L 131.171875 2.8125 L 143.769531 15.414062 L 143.570312 15.617188 L 143.769531 15.410156 L 143.824219 15.449219 L 143.871094 15.734375 L 143.871094 15.449219 L 143.976562 15.425781 L 143.980469 15.417969 L 144.039062 15.285156 L 144.328125 15.261719 L 144.039062 15.261719 L 144.027344 15.183594 L 131.125 2.28125 L 131.328125 2.078125 L 131.125 2.28125 L 131.0625 2.234375 L 131.015625 1.949219 L 131.015625 2.234375 L 130.824219 2.273438 L 130.539062 2.410156 L 130.824219 2.410156 L 130.824219 15.609375 L 130.539062 15.609375 L 130.824219 15.609375 L 130.84375 15.765625 L 130.976562 16.050781 L 130.976562 15.765625 M 130.976562 16.339844 C 130.523438 16.339844 130.25 16.066406 130.25 15.613281 L 130.25 2.410156 C 130.25 1.929688 130.546875 1.660156 131.015625 1.660156 L 131.390625 1.730469 L 144.402344 14.742188 L 144.203125 14.945312 L 144.402344 14.742188 L 144.617188 15.0625 L 144.617188 15.261719 C 144.617188 15.429688 144.554688 15.585938 144.464844 15.730469 L 144.222656 15.574219 L 144.464844 15.730469 L 144.101562 16.027344 L 143.867188 16.027344 C 143.675781 16.027344 143.503906 15.957031 143.367188 15.820312 L 131.253906 3.710938 L 131.457031 3.507812 L 131.742188 3.507812 L 131.742188 15.609375 C 131.742188 16.082031 131.433594 16.339844 130.976562 16.339844 M 144.050781 2.234375 L 143.859375 2.273438 L 143.574219 2.390625 L 143.859375 2.390625 L 143.859375 15.609375 L 143.574219 15.609375 L 143.859375 15.609375 L 143.878906 15.765625 L 144.011719 16.050781 L 144.011719 15.765625 L 144.203125 15.726562 L 144.492188 15.609375 L 144.203125 15.609375 L 144.203125 2.390625 L 144.492188 2.390625 L 144.203125 2.390625 L 144.1875 2.234375 L 144.050781 1.949219 L 144.050781 2.234375 M 144.050781 1.660156 C 144.503906 1.660156 144.78125 1.9375 144.78125 2.390625 L 144.78125 15.609375 C 144.78125 16.082031 144.46875 16.339844 144.011719 16.339844 C 143.554688 16.339844 143.285156 16.066406 143.285156 15.609375 L 143.285156 2.390625 C 143.285156 1.917969 143.59375 1.660156 144.050781 1.660156 " clip-rule="nonzero"/></clipPath></defs><path stroke-linecap="butt" transform="matrix(0.000000000000000064, 0.225681, -0.223889, 0.000000000000000063, 11.019514, 2.304757)" fill="none" stroke-linejoin="miter" d="M -0.000308184 2.00636 L 60.528326 2.00636 " stroke="#1f2533" stroke-width="4" stroke-opacity="1" stroke-miterlimit="4"/><path stroke-linecap="butt" transform="matrix(0.222935, 0.000000000000000173, -0.000000000000000174, 0.223889, 2.454014, 1.856305)" fill="none" stroke-linejoin="miter" d="M -0.00398891 2.002703 L 73.325422 2.002703 " stroke="#1f2533" stroke-width="4" stroke-opacity="1" stroke-miterlimit="4"/><path stroke-linecap="butt" transform="matrix(0.224203, 0, 0, 0.223889, 23.947376, 1.856305)" fill="none" stroke-linejoin="miter" d="M 0.00821871 2.002703 L 66.929423 2.002703 " stroke="#1f2533" stroke-width="4" stroke-opacity="1" stroke-miterlimit="4"/><path stroke-linecap="butt" transform="matrix(0.224203, 0, 0, 0.223889, 23.947376, 15.327283)" fill="none" stroke-linejoin="miter" d="M 0.00821871 1.992752 L 66.929423 1.992752 " stroke="#1f2533" stroke-width="4" stroke-opacity="1" stroke-miterlimit="4"/><path stroke-linecap="butt" transform="matrix(-0.000000000000000386, 0.225032, -0.223889, -0.000000000000000384, 22.071221, 4.454171)" fill="none" stroke-linejoin="miter" d="M -0.00464693 1.993046 L 39.81615 1.993046 " stroke="#1f2533" stroke-width="4" stroke-opacity="1" stroke-miterlimit="4"/><path stroke-linecap="butt" transform="matrix(0.00319809, 0.225009, -0.223866, 0.00318185, 41.576378, 4.449312)" fill="none" stroke-linejoin="miter" d="M 0.00604014 1.99892 L 39.796243 1.991533 " stroke="#1f2533" stroke-width="4" stroke-opacity="1" stroke-miterlimit="4"/><path stroke-linecap="butt" transform="matrix(-0.00055664, 0.222299, -0.223888, -0.000560621, 44.602115, 2.305581)" fill="none" stroke-linejoin="miter" d="M 0.00100481 1.991461 L 59.429812 2.000733 " stroke="#1f2533" stroke-width="4" stroke-opacity="1" stroke-miterlimit="4"/><path stroke-linecap="butt" transform="matrix(0.000000000000000014, 0.225681, -0.223889, 0.000000000000000014, 66.727533, 1.94587)" fill="none" stroke-linejoin="miter" d="M -0.0024699 1.993326 L 60.526165 1.993326 " stroke="#1f2533" stroke-width="4" stroke-opacity="1" stroke-miterlimit="4"/><path stroke-linecap="butt" transform="matrix(0.000000000000000014, 0.225681, -0.223889, 0.000000000000000014, 69.902371, 2.225612)" fill="none" stroke-linejoin="miter" d="M 0.00421067 2.006557 L 60.515537 2.006557 " stroke="#1f2533" stroke-width="4" stroke-opacity="1" stroke-miterlimit="4"/><path stroke-linecap="butt" transform="matrix(0.000000000000000413, 0.224909, -0.223889, 0.000000000000000411, 82.977183, 2.035076)" fill="none" stroke-linejoin="miter" d="M 0.000358165 1.991763 L 61.72668 1.991763 " stroke="#1f2533" stroke-width="4" stroke-opacity="1" stroke-miterlimit="4"/><path stroke-linecap="butt" transform="matrix(0.159412, 0.156716, -0.156958, 0.159658, 69.577519, 2.034352)" fill="none" stroke-linejoin="miter" d="M -0.000362771 2.011641 L 81.12065 1.999131 " stroke="#1f2533" stroke-width="4" stroke-opacity="1" stroke-miterlimit="4"/><path stroke-linecap="butt" transform="matrix(0.157539, 0.15922, -0.159151, 0.157471, 55.393899, 4.134114)" fill="none" stroke-linejoin="miter" d="M -0.00381028 2.004886 L 71.977523 2.005175 " stroke="#1f2533" stroke-width="4" stroke-opacity="1" stroke-miterlimit="4"/><path stroke-linecap="butt" transform="matrix(-0.159073, 0.156974, -0.157259, -0.159361, 55.799182, 4.77454)" fill="none" stroke-linejoin="miter" d="M 0.00473541 1.997052 L 69.132568 1.995431 " stroke="#1f2533" stroke-width="4" stroke-opacity="1" stroke-miterlimit="4"/><path stroke-linecap="butt" transform="matrix(-0.158806, 0.151537, -0.154563, -0.161977, 41.701372, 13.423571)" fill="none" stroke-linejoin="miter" d="M 0.0114628 1.998712 L 18.363045 1.996869 " stroke="#1f2533" stroke-width="4" stroke-opacity="1" stroke-miterlimit="4"/><path stroke-linecap="butt" transform="matrix(-0.158806, 0.151537, -0.154563, -0.161977, 24.768729, 2.505194)" fill="none" stroke-linejoin="miter" d="M -0.00928137 2.0009 L 18.367461 1.998479 " stroke="#1f2533" stroke-width="4" stroke-opacity="1" stroke-miterlimit="4"/><path stroke-linecap="butt" transform="matrix(0.162056, 0.15313, -0.153768, 0.162732, 21.801058, 12.852644)" fill="none" stroke-linejoin="miter" d="M 0.000518487 2.009222 L 15.083542 2.002631 " stroke="#1f2533" stroke-width="4" stroke-opacity="1" stroke-miterlimit="4"/><path stroke-linecap="butt" transform="matrix(0.153895, 0.154137, -0.158438, 0.158189, 39.084272, 2.225757)" fill="none" stroke-linejoin="miter" d="M -0.00304026 2.00823 L 14.402926 1.997231 " stroke="#1f2533" stroke-width="4" stroke-opacity="1" stroke-miterlimit="4"/><path stroke-linecap="butt" transform="matrix(0.224203, 0, 0, 0.223889, 88.481019, 15.327283)" fill="none" stroke-linejoin="miter" d="M -0.00245432 1.992752 L 66.91875 1.992752 " stroke="#ffbd59" stroke-width="4" stroke-opacity="1" stroke-miterlimit="4"/><path stroke-linecap="butt" transform="matrix(0.224877, 0, 0, 0.223889, 87.724618, 1.856305)" fill="none" stroke-linejoin="miter" d="M 0.00864574 2.002703 L 63.724011 2.002703 " stroke="#ffbd59" stroke-width="4" stroke-opacity="1" stroke-miterlimit="4"/><path stroke-linecap="butt" transform="matrix(0.224203, 0, 0, 0.223889, 110.186538, 1.856305)" fill="none" stroke-linejoin="miter" d="M 0.00428993 2.002703 L 66.925494 2.002703 " stroke="#ffbd59" stroke-width="4" stroke-opacity="1" stroke-miterlimit="4"/><path stroke-linecap="butt" transform="matrix(0.224203, 0, 0, 0.223889, 110.186538, 14.95865)" fill="none" stroke-linejoin="miter" d="M 0.00428993 1.999206 L 66.925494 1.999206 " stroke="#ffbd59" stroke-width="4" stroke-opacity="1" stroke-miterlimit="4"/><path stroke-linecap="butt" transform="matrix(0.0011308, 0.225029, -0.223886, 0.00112506, 86.246533, 4.453032)" fill="none" stroke-linejoin="miter" d="M 0.00773214 2.008462 L 39.794355 2.000045 " stroke="#ffbd59" stroke-width="4" stroke-opacity="1" stroke-miterlimit="4"/><path stroke-linecap="butt" transform="matrix(0.00104421, 0.221578, -0.223886, 0.00105508, 108.769909, 4.453054)" fill="none" stroke-linejoin="miter" d="M 0.00838846 2.008187 L 42.441955 1.996728 " stroke="#ffbd59" stroke-width="4" stroke-opacity="1" stroke-miterlimit="4"/><path stroke-linecap="butt" transform="matrix(0.00452233, 0.224986, -0.223844, 0.00449937, 127.765349, 4.447127)" fill="none" stroke-linejoin="miter" d="M 0.00391231 2.005687 L 39.815359 2.007265 " stroke="#ffbd59" stroke-width="4" stroke-opacity="1" stroke-miterlimit="4"/><path stroke-linecap="butt" transform="matrix(0.000000000000000014, 0.225681, -0.223889, 0.000000000000000014, 131.539241, 2.304757)" fill="none" stroke-linejoin="miter" d="M -0.000308184 2.007232 L 60.528326 2.007232 " stroke="#ffbd59" stroke-width="4" stroke-opacity="1" stroke-miterlimit="4"/><path stroke-linecap="butt" transform="matrix(0.000000000000000014, 0.225681, -0.223889, 0.000000000000000014, 144.492004, 2.225612)" fill="none" stroke-linejoin="miter" d="M 0.00421067 2.005615 L 60.515537 2.005615 " stroke="#ffbd59" stroke-width="4" stroke-opacity="1" stroke-miterlimit="4"/><path stroke-linecap="butt" transform="matrix(0.159412, 0.156716, -0.156958, 0.159658, 130.958167, 1.905889)" fill="none" stroke-linejoin="miter" d="M 0.00515139 2.003453 L 81.126164 1.990942 " stroke="#ffbd59" stroke-width="4" stroke-opacity="1" stroke-miterlimit="4"/><path stroke-linecap="butt" transform="matrix(-0.174307, 0.149422, -0.145714, -0.169982, 88.769542, 2.645122)" fill="none" stroke-linejoin="miter" d="M 0.00379793 2.006111 L 16.594481 1.997515 " stroke="#ffbd59" stroke-width="4" stroke-opacity="1" stroke-miterlimit="4"/><path stroke-linecap="butt" transform="matrix(-0.144524, 0.165081, -0.168454, -0.147477, 105.756952, 13.834573)" fill="none" stroke-linejoin="miter" d="M -0.00740943 1.995484 L 13.277407 2.006796 " stroke="#ffbd59" stroke-width="4" stroke-opacity="1" stroke-miterlimit="4"/><path stroke-linecap="butt" transform="matrix(-0.158806, 0.151537, -0.154563, -0.161977, 127.943328, 13.222971)" fill="none" stroke-linejoin="miter" d="M 0.0027588 2.006157 L 18.379501 2.003736 " stroke="#ffbd59" stroke-width="4" stroke-opacity="1" stroke-miterlimit="4"/><path stroke-linecap="butt" transform="matrix(-0.158806, 0.151537, -0.154563, -0.161977, 111.466304, 2.207188)" fill="none" stroke-linejoin="miter" d="M 0.00173574 2.004225 L 18.378478 2.001804 " stroke="#ffbd59" stroke-width="4" stroke-opacity="1" stroke-miterlimit="4"/><path stroke-linecap="butt" transform="matrix(0.163233, 0.160218, -0.156831, 0.159782, 86.135108, 12.924596)" fill="none" stroke-linejoin="miter" d="M 0.00238369 2.009712 L 16.644356 1.995472 " stroke="#ffbd59" stroke-width="4" stroke-opacity="1" stroke-miterlimit="4"/><path stroke-linecap="butt" transform="matrix(0.137221, 0.16747, -0.173179, 0.141899, 102.193742, 1.878652)" fill="none" stroke-linejoin="miter" d="M 0.00655527 2.003624 L 11.390856 2.00169 " stroke="#ffbd59" stroke-width="4" stroke-opacity="1" stroke-miterlimit="4"/><path stroke-linecap="butt" transform="matrix(0.153895, 0.154137, -0.158438, 0.158189, 108.508067, 12.86147)" fill="none" stroke-linejoin="miter" d="M 0.00667134 2.005128 L 14.399966 2.006476 " stroke="#ffbd59" stroke-width="4" stroke-opacity="1" stroke-miterlimit="4"/><path stroke-linecap="butt" transform="matrix(0.147858, 0.162364, -0.165535, 0.150746, 125.500555, 2.002761)" fill="none" stroke-linejoin="miter" d="M -0.00318456 2.006314 L 16.31542 1.998888 " stroke="#ffbd59" stroke-width="4" stroke-opacity="1" stroke-miterlimit="4"/><path stroke-linecap="butt" transform="matrix(0.00426144, 0.239442, -0.223853, 0.00398401, 103.888214, 3.874547)" fill="none" stroke-linejoin="miter" d="M 0.00131019 1.996008 L 5.613279 1.998142 " stroke="#ffbd59" stroke-width="4" stroke-opacity="1" stroke-miterlimit="4"/><path stroke-linecap="butt" transform="matrix(0.000000000000004125, 0.220444, -0.223889, 0.00000000000000419, 105.545817, 12.574464)" fill="none" stroke-linejoin="miter" d="M -0.0011126 2.001711 L 6.094528 2.001711 " stroke="#ffbd59" stroke-width="4" stroke-opacity="1" stroke-miterlimit="4"/><g clip-path="url(#58459eb039)"><g clip-path="url(#5567ebb0e8)"><path fill="#1f2533" d="M 0.726562 0.167969 L 146.203125 0.167969 L 146.203125 17.878906 L 0.726562 17.878906 Z M 0.726562 0.167969 " fill-opacity="1" fill-rule="nonzero"/></g></g><g clip-path="url(#3f82c74eaf)"><g clip-path="url(#98e372741c)"><path fill="#1f2533" d="M 0.726562 0.167969 L 146.203125 0.167969 L 146.203125 17.878906 L 0.726562 17.878906 Z M 0.726562 0.167969 " fill-opacity="1" fill-rule="nonzero"/></g></g><g clip-path="url(#9ea1e6e2b6)"><g clip-path="url(#01eb428405)"><path fill="#1f2533" d="M 0.726562 0.167969 L 146.203125 0.167969 L 146.203125 17.878906 L 0.726562 17.878906 Z M 0.726562 0.167969 " fill-opacity="1" fill-rule="nonzero"/></g></g><g clip-path="url(#bc2fcd1f55)"><g clip-path="url(#6ab2ae6d58)"><path fill="#1f2533" d="M 0.726562 0.167969 L 146.203125 0.167969 L 146.203125 17.878906 L 0.726562 17.878906 Z M 0.726562 0.167969 " fill-opacity="1" fill-rule="nonzero"/></g></g><g clip-path="url(#4dfc49caff)"><g clip-path="url(#ad60c73952)"><path fill="#f7a636" d="M 0.726562 0.167969 L 146.203125 0.167969 L 146.203125 17.878906 L 0.726562 17.878906 Z M 0.726562 0.167969 " fill-opacity="1" fill-rule="nonzero"/></g></g><g clip-path="url(#ffd1e369fd)"><g clip-path="url(#28177e6f96)"><path fill="#f7a636" d="M 0.726562 0.167969 L 146.203125 0.167969 L 146.203125 17.878906 L 0.726562 17.878906 Z M 0.726562 0.167969 " fill-opacity="1" fill-rule="nonzero"/></g></g><g clip-path="url(#276688c603)"><g clip-path="url(#382dca656d)"><path fill="#f7a636" d="M 0.726562 0.167969 L 146.203125 0.167969 L 146.203125 17.878906 L 0.726562 17.878906 Z M 0.726562 0.167969 " fill-opacity="1" fill-rule="nonzero"/></g></g></svg>