<svg xmlns="http://www.w3.org/2000/svg" xmlns:xlink="http://www.w3.org/1999/xlink" width="561" zoomAndPan="magnify" viewBox="0 0 420.75 326.250004" height="435" preserveAspectRatio="xMidYMid meet" version="1.0"><defs><clipPath id="cffe9cbdbe"><path d="M 56 160 L 171 160 L 171 303.230469 L 56 303.230469 Z M 56 160 " clip-rule="nonzero"/></clipPath><clipPath id="34d6cb5000"><path d="M 184 293 L 396.542969 293 L 396.542969 299 L 184 299 Z M 184 293 " clip-rule="nonzero"/></clipPath></defs><path fill="#f2a536" d="M 200.648438 89.703125 L 218.449219 57.109375 C 213.921875 59.121094 209.414062 61.390625 205 63.949219 C 189.300781 73.0625 176.433594 84.605469 167.984375 96.183594 L 192.269531 94.957031 C 195.789062 94.785156 198.96875 92.792969 200.648438 89.703125 Z M 200.648438 89.703125 " fill-opacity="1" fill-rule="nonzero"/><g clip-path="url(#cffe9cbdbe)"><path fill="#f2a536" d="M 164.683594 209.710938 L 127.988281 169.164062 L 130.273438 160.511719 L 103.839844 175.855469 C 103.839844 177.042969 103.976562 178.183594 103.800781 179.425781 C 102.890625 185.804688 97.351562 190.617188 90.910156 190.617188 C 90.292969 190.617188 89.667969 190.574219 89.058594 190.488281 C 86.847656 190.171875 84.917969 189.152344 83.183594 187.847656 L 72.453125 194.070312 L 84.996094 222.863281 L 58.234375 280.714844 C 54.570312 288.640625 58.027344 298.035156 65.957031 301.699219 C 68.105469 302.691406 70.363281 303.160156 72.585938 303.160156 C 78.558594 303.160156 84.28125 299.761719 86.953125 293.984375 L 116.691406 229.691406 C 118.585938 225.59375 118.640625 220.882812 116.835938 216.746094 L 106.117188 192.140625 L 137.308594 226.601562 L 139.039062 286.539062 C 139.285156 295.113281 146.316406 301.894531 154.839844 301.894531 C 154.996094 301.894531 155.152344 301.890625 155.308594 301.886719 C 164.039062 301.636719 170.917969 294.355469 170.664062 285.628906 L 168.765625 219.863281 C 168.65625 216.101562 167.207031 212.503906 164.683594 209.710938 Z M 164.683594 209.710938 " fill-opacity="1" fill-rule="nonzero"/></g><path fill="#f2a536" d="M 59.609375 161.03125 C 59.582031 162.578125 59.867188 164.132812 60.316406 165.675781 L 63.636719 163.75 C 62.304688 162.839844 60.960938 161.933594 59.609375 161.03125 Z M 59.609375 161.03125 " fill-opacity="1" fill-rule="nonzero"/><path fill="#f2a536" d="M 151.160156 68.230469 C 150.851562 68.257812 150.542969 68.273438 150.238281 68.273438 C 144.84375 68.273438 140.417969 64.222656 139.941406 58.851562 C 139.929688 58.738281 139.980469 58.640625 139.972656 58.527344 L 136.824219 58.808594 C 136.839844 58.917969 136.902344 59.007812 136.914062 59.121094 C 137.417969 64.796875 133.207031 69.828125 127.527344 70.335938 C 127.214844 70.359375 126.910156 70.375 126.601562 70.375 C 121.210938 70.375 116.785156 66.324219 116.304688 60.953125 C 116.296875 60.839844 116.34375 60.742188 116.339844 60.628906 L 100.519531 62.039062 C 103.457031 71.742188 111.375 79.605469 122.011719 81.757812 C 134.367188 84.257812 146.363281 78.277344 152.285156 67.902344 C 151.898438 67.984375 151.558594 68.195312 151.160156 68.230469 Z M 151.160156 68.230469 " fill-opacity="1" fill-rule="nonzero"/><path fill="#f2a536" d="M 118.675781 53.402344 C 120.449219 51.28125 122.941406 49.980469 125.691406 49.738281 C 126.003906 49.710938 126.3125 49.695312 126.617188 49.695312 C 130.839844 49.695312 134.390625 52.214844 136 55.867188 L 140.3125 55.484375 C 141.347656 51.320312 144.820312 48.035156 149.328125 47.636719 C 149.636719 47.605469 149.945312 47.59375 150.25 47.59375 C 152.289062 47.59375 154.089844 48.3125 155.691406 49.324219 C 153.84375 37.972656 145.257812 28.394531 133.3125 25.976562 C 117.902344 22.859375 102.875 32.816406 99.753906 48.222656 C 99.007812 51.925781 99.050781 55.597656 99.707031 59.09375 L 116.664062 57.585938 C 117.035156 56.074219 117.644531 54.628906 118.675781 53.402344 Z M 118.675781 53.402344 " fill-opacity="1" fill-rule="nonzero"/><path fill="#f2a536" d="M 150.902344 65.335938 C 154.992188 64.972656 158.015625 61.363281 157.648438 57.273438 C 157.285156 53.1875 153.675781 50.167969 149.585938 50.53125 C 145.496094 50.894531 142.476562 54.503906 142.839844 58.59375 C 143.203125 62.679688 146.816406 65.699219 150.902344 65.335938 Z M 150.902344 65.335938 " fill-opacity="1" fill-rule="nonzero"/><path fill="#f2a536" d="M 125.949219 52.632812 C 121.863281 52.996094 118.839844 56.605469 119.203125 60.695312 C 119.566406 64.78125 123.179688 67.800781 127.269531 67.4375 C 131.359375 67.074219 134.378906 63.464844 134.015625 59.375 C 133.652344 55.289062 130.042969 52.269531 125.949219 52.632812 Z M 125.949219 52.632812 " fill-opacity="1" fill-rule="nonzero"/><path fill="#f2a536" d="M 193 43.304688 C 173.851562 54.421875 158.1875 69.003906 148.898438 84.359375 C 139.253906 100.304688 137.550781 115.296875 144.105469 126.574219 C 144.207031 126.75 144.328125 126.914062 144.433594 127.085938 L 130.027344 135.449219 C 126.792969 133.808594 122.824219 133.785156 119.453125 135.738281 L 91.226562 152.121094 C 97.472656 157.742188 102.238281 164.085938 103.574219 171.625 L 131.039062 155.679688 C 134.410156 153.726562 136.355469 150.265625 136.535156 146.644531 L 150.925781 138.292969 C 150.957031 138.347656 150.984375 138.410156 151.019531 138.46875 C 157.332031 149.332031 170.433594 155.253906 188.046875 155.253906 C 188.71875 155.253906 189.398438 155.242188 190.082031 155.226562 C 208.03125 154.773438 228.464844 148.402344 247.617188 137.285156 C 266.769531 126.167969 282.429688 111.589844 291.71875 96.234375 C 301.363281 80.289062 303.0625 65.296875 296.511719 54.019531 L 289.597656 42.125 C 283.371094 31.410156 270.359375 25.6875 253.128906 25.53125 C 252.226562 25.523438 251.460938 25.34375 250.535156 25.367188 C 243.394531 25.546875 235.808594 26.910156 228.121094 28.890625 C 227.222656 27.375 226.074219 25.996094 224.414062 25.089844 C 219.457031 22.402344 213.351562 24.226562 210.671875 29.121094 L 208.160156 33.722656 C 212.261719 32.625 216.710938 31.589844 221.433594 30.632812 C 211.941406 33.660156 202.320312 37.898438 193 43.304688 Z M 286.597656 51.78125 C 288.394531 60.078125 285.957031 70.210938 279.390625 81.066406 C 270.640625 95.53125 255.773438 109.328125 237.523438 119.921875 C 204.261719 139.226562 169.121094 142.460938 153.992188 128.789062 C 149.605469 108.878906 169.832031 79.976562 203.089844 60.671875 C 222.773438 49.246094 243.117188 43.445312 259.582031 43.445312 C 270.929688 43.445312 280.417969 46.210938 286.597656 51.78125 Z M 286.597656 51.78125 " fill-opacity="1" fill-rule="nonzero"/><path fill="#f2a536" d="M 77.929688 176.277344 C 77.707031 175.800781 76.9375 174.453125 74.589844 172.203125 C 72.511719 170.210938 69.902344 168.179688 67.070312 166.144531 L 31.492188 186.792969 C 26.203125 189.863281 24.402344 196.640625 27.476562 201.925781 L 27.941406 202.722656 C 31.011719 208.007812 37.789062 209.804688 43.082031 206.734375 L 80.328125 185.117188 C 78.480469 182.527344 77.605469 179.433594 77.929688 176.277344 Z M 77.929688 176.277344 " fill-opacity="1" fill-rule="nonzero"/><path fill="#f2a536" d="M 60.222656 157.9375 C 66.191406 161.917969 72.359375 166.039062 76.605469 170.101562 C 80.308594 173.652344 80.941406 175.683594 80.875 176.164062 C 80.085938 181.695312 83.933594 186.820312 89.46875 187.605469 C 89.953125 187.675781 90.433594 187.710938 90.910156 187.710938 C 95.867188 187.710938 100.199219 184.066406 100.917969 179.015625 C 103.292969 162.351562 86.386719 151.066406 71.472656 141.109375 C 67.050781 138.15625 60.671875 133.898438 58.140625 131.292969 C 60.800781 122.714844 63.53125 115.9375 66.191406 110.441406 C 70.152344 102.265625 73.941406 97.085938 77.09375 93.855469 L 66.4375 134.15625 C 68.695312 135.75 71.09375 137.355469 73.042969 138.660156 C 78.140625 142.0625 83.398438 145.644531 88.15625 149.515625 L 117.546875 132.457031 C 119.808594 131.144531 122.386719 130.449219 124.992188 130.449219 C 126.601562 130.449219 128.210938 130.714844 129.742188 131.226562 L 139.359375 125.644531 C 133.839844 113.53125 136.019531 98.316406 145.648438 82.398438 C 146.785156 80.515625 148.304688 78.703125 149.621094 76.851562 L 148.800781 76.890625 C 143.164062 82.058594 135.746094 85.238281 127.691406 85.238281 C 125.605469 85.238281 123.5 85.027344 121.4375 84.609375 C 113.132812 82.929688 106.292969 78.074219 101.839844 71.589844 L 87.992188 68.460938 C 87.882812 68.5 87.816406 68.605469 87.710938 68.652344 C 87.167969 68.515625 86.6875 68.242188 86.109375 68.195312 C 82.566406 67.9375 68.375 68.535156 54.144531 90.671875 C 48.554688 99.363281 42.957031 111.277344 38.003906 127.917969 C 34.230469 140.582031 46.855469 149.011719 60.222656 157.9375 Z M 60.222656 157.9375 " fill-opacity="1" fill-rule="nonzero"/><path fill="#f2a536" d="M 234.367188 109.417969 C 206.253906 127.503906 175.390625 130.0625 163.695312 115.734375 C 164.027344 116.40625 164.382812 117.0625 164.792969 117.695312 C 175.308594 134.023438 207.546875 132.003906 236.792969 113.183594 C 266.042969 94.363281 281.222656 65.871094 270.703125 49.542969 C 270.410156 49.089844 270.078125 48.671875 269.75 48.25 C 269.621094 48.082031 269.503906 47.898438 269.371094 47.734375 C 269.441406 47.878906 269.441406 48.054688 269.511719 48.203125 C 277.246094 64.808594 262.230469 91.484375 234.367188 109.417969 Z M 234.367188 109.417969 " fill-opacity="1" fill-rule="nonzero"/><path fill="#f2a536" d="M 284.234375 288.300781 L 284.234375 288.296875 L 378.199219 288.296875 L 378.199219 231.234375 L 388.40625 231.234375 C 390.972656 231.234375 393.285156 229.691406 394.269531 227.324219 C 395.25 224.953125 394.707031 222.226562 392.894531 220.414062 L 338.097656 165.648438 C 336.921875 164.472656 335.285156 163.796875 333.609375 163.796875 L 244.410156 163.796875 C 242.695312 163.796875 241.105469 164.496094 239.9375 165.664062 L 239.929688 165.652344 L 185.136719 220.414062 L 194.105469 229.382812 L 203.011719 220.476562 L 203.011719 288.300781 Z M 288.046875 222.710938 L 294.722656 229.382812 C 295.90625 230.5625 297.542969 231.234375 299.207031 231.234375 L 371.855469 231.234375 L 371.855469 281.960938 L 347.742188 281.960938 L 347.742188 253.210938 L 323.132812 253.210938 L 323.132812 281.960938 L 288.046875 281.960938 Z M 209.359375 214.132812 L 244.410156 179.101562 L 281.699219 216.367188 L 281.699219 281.960938 L 209.359375 281.960938 Z M 209.359375 214.132812 " fill-opacity="1" fill-rule="nonzero"/><path fill="#f2a536" d="M 225.628906 246.5625 L 239.125 246.5625 L 239.125 260.054688 L 225.628906 260.054688 Z M 225.628906 246.5625 " fill-opacity="1" fill-rule="nonzero"/><path fill="#f2a536" d="M 243.1875 229.015625 L 256.6875 229.015625 L 256.6875 242.503906 L 243.1875 242.503906 Z M 243.1875 229.015625 " fill-opacity="1" fill-rule="nonzero"/><path fill="#f2a536" d="M 243.1875 246.5625 L 256.6875 246.5625 L 256.6875 260.054688 L 243.1875 260.054688 Z M 243.1875 246.5625 " fill-opacity="1" fill-rule="nonzero"/><path fill="#f2a536" d="M 225.628906 229.015625 L 239.125 229.015625 L 239.125 242.503906 L 225.628906 242.503906 Z M 225.628906 229.015625 " fill-opacity="1" fill-rule="nonzero"/><g clip-path="url(#34d6cb5000)"><path fill="#f2a536" d="M 184.097656 293.105469 L 396.425781 293.105469 L 396.425781 298.953125 L 184.097656 298.953125 Z M 184.097656 293.105469 " fill-opacity="1" fill-rule="nonzero"/></g></svg>