<svg xmlns="http://www.w3.org/2000/svg" xmlns:xlink="http://www.w3.org/1999/xlink" width="561" zoomAndPan="magnify" viewBox="0 0 420.75 326.250004" height="435" preserveAspectRatio="xMidYMid meet" version="1.0"><defs><clipPath id="6ba2179d10"><path d="M 57 9 L 363 9 L 363 316.726562 L 57 316.726562 Z M 57 9 " clip-rule="nonzero"/></clipPath></defs><g clip-path="url(#6ba2179d10)"><path fill="#ffffff" d="M 350 171.304688 L 275.226562 171.304688 L 275.226562 118.226562 L 350 118.226562 Z M 350 237.910156 L 314.15625 237.910156 L 314.15625 184.144531 L 350 184.144531 Z M 350 303.886719 L 264.625 303.886719 L 264.625 250.777344 L 350 250.777344 Z M 251.785156 303.886719 L 167.914062 303.886719 L 167.914062 250.777344 L 251.785156 250.777344 Z M 155.074219 303.886719 L 71.558594 303.886719 L 71.558594 250.777344 L 155.074219 250.777344 Z M 71.558594 184.144531 L 107.894531 184.144531 L 107.894531 237.910156 L 71.53125 237.910156 Z M 120.761719 184.144531 L 204.605469 184.144531 L 204.605469 237.910156 L 120.734375 237.910156 Z M 217.445312 184.144531 L 301.316406 184.144531 L 301.316406 237.910156 L 217.445312 237.910156 Z M 356.417969 105.355469 L 268.804688 105.355469 C 265.253906 105.355469 262.359375 108.226562 262.359375 111.777344 L 262.359375 171.277344 L 65.140625 171.277344 C 61.5625 171.277344 58.691406 174.148438 58.691406 177.699219 L 58.691406 310.308594 C 58.691406 313.859375 61.5625 316.726562 65.140625 316.726562 L 356.417969 316.726562 C 359.972656 316.726562 362.839844 313.859375 362.839844 310.308594 L 362.839844 111.777344 C 362.839844 110.082031 362.183594 108.445312 360.980469 107.242188 C 359.753906 106.039062 358.113281 105.355469 356.417969 105.355469 Z M 70.769531 21.867188 L 138.601562 21.867188 L 138.601562 73.230469 L 70.769531 73.230469 Z M 64.347656 86.097656 L 145.050781 86.097656 C 148.601562 86.097656 151.46875 83.226562 151.46875 79.675781 L 151.46875 15.421875 C 151.46875 11.871094 148.601562 9 145.050781 9 L 64.347656 9 C 60.796875 9 57.929688 11.871094 57.929688 15.421875 L 57.929688 79.648438 C 57.929688 81.34375 58.582031 83.011719 59.8125 84.210938 C 61.015625 85.414062 62.652344 86.097656 64.347656 86.097656 Z M 104.371094 97.652344 C 100.847656 97.652344 97.949219 100.550781 97.949219 104.101562 L 97.949219 134.726562 L 88.007812 124.753906 C 85.464844 122.40625 81.53125 122.460938 79.074219 124.917969 C 76.640625 127.347656 76.558594 131.285156 78.910156 133.824219 L 99.835938 154.777344 C 102.347656 157.265625 106.390625 157.265625 108.90625 154.777344 L 129.859375 133.824219 C 131.171875 132.648438 131.964844 130.984375 132.019531 129.207031 C 132.046875 127.457031 131.390625 125.738281 130.132812 124.480469 C 128.875 123.222656 127.15625 122.542969 125.378906 122.597656 C 123.632812 122.648438 121.964844 123.441406 120.789062 124.753906 L 110.816406 134.726562 L 110.816406 104.101562 C 110.816406 100.550781 107.921875 97.679688 104.398438 97.652344 Z M 173.1875 61.917969 L 239.628906 61.917969 L 239.628906 113.363281 L 173.1875 113.363281 Z M 166.769531 126.230469 L 246.078125 126.230469 C 249.601562 126.230469 252.496094 123.332031 252.496094 119.78125 L 252.496094 55.5 C 252.496094 51.949219 249.601562 49.050781 246.078125 49.050781 L 166.769531 49.050781 C 163.21875 49.050781 160.347656 51.949219 160.347656 55.5 L 160.347656 119.78125 C 160.347656 121.503906 161.003906 123.140625 162.234375 124.34375 C 163.433594 125.546875 165.074219 126.230469 166.769531 126.230469 " fill-opacity="1" fill-rule="nonzero"/></g></svg>