<svg xmlns="http://www.w3.org/2000/svg" xmlns:xlink="http://www.w3.org/1999/xlink" width="561" zoomAndPan="magnify" viewBox="0 0 420.75 326.250004" height="435" preserveAspectRatio="xMidYMid meet" version="1.0"><defs><clipPath id="a43e7bb3d9"><path d="M 48.101562 6.179688 L 372.300781 6.179688 L 372.300781 319.148438 L 48.101562 319.148438 Z M 48.101562 6.179688 " clip-rule="nonzero"/></clipPath></defs><g clip-path="url(#a43e7bb3d9)"><path fill="#ffffff" d="M 367.042969 308.714844 L 352.515625 308.714844 L 352.515625 104.058594 C 352.515625 101.179688 350.183594 98.847656 347.304688 98.847656 L 215.410156 98.847656 L 215.410156 11.390625 C 215.410156 8.515625 213.078125 6.179688 210.203125 6.179688 L 73.089844 6.179688 C 70.214844 6.179688 67.878906 8.515625 67.878906 11.390625 L 67.878906 308.714844 L 53.359375 308.714844 C 50.484375 308.714844 48.152344 311.046875 48.152344 313.921875 C 48.152344 316.796875 50.484375 319.132812 53.359375 319.132812 L 367.050781 319.132812 C 369.925781 319.132812 372.261719 316.796875 372.261719 313.921875 C 372.253906 311.046875 369.917969 308.714844 367.042969 308.714844 Z M 78.300781 16.601562 L 204.992188 16.601562 L 204.992188 308.722656 L 78.300781 308.722656 Z M 215.410156 308.714844 L 215.410156 109.265625 L 342.101562 109.265625 L 342.101562 308.714844 Z M 128.894531 251.265625 L 104 251.265625 C 101.125 251.265625 98.792969 253.597656 98.792969 256.472656 L 98.792969 283.28125 C 98.792969 286.160156 101.125 288.492188 104 288.492188 L 128.894531 288.492188 C 131.769531 288.492188 134.101562 286.160156 134.101562 283.28125 L 134.101562 256.472656 C 134.101562 253.597656 131.769531 251.265625 128.894531 251.265625 Z M 123.683594 278.074219 L 109.210938 278.074219 L 109.210938 261.683594 L 123.683594 261.683594 Z M 128.894531 36.820312 L 104 36.820312 C 101.125 36.820312 98.792969 39.15625 98.792969 42.03125 L 98.792969 68.839844 C 98.792969 71.714844 101.125 74.050781 104 74.050781 L 128.894531 74.050781 C 131.769531 74.050781 134.101562 71.714844 134.101562 68.839844 L 134.101562 42.03125 C 134.101562 39.15625 131.769531 36.820312 128.894531 36.820312 Z M 123.683594 63.628906 L 109.210938 63.628906 L 109.210938 47.242188 L 123.683594 47.242188 Z M 179.296875 144.046875 L 154.40625 144.046875 C 151.53125 144.046875 149.199219 146.378906 149.199219 149.257812 L 149.199219 176.066406 C 149.199219 178.941406 151.53125 181.273438 154.40625 181.273438 L 179.296875 181.273438 C 182.175781 181.273438 184.507812 178.941406 184.507812 176.066406 L 184.507812 149.257812 C 184.507812 146.378906 182.175781 144.046875 179.296875 144.046875 Z M 174.089844 170.847656 L 159.617188 170.847656 L 159.617188 154.457031 L 174.089844 154.457031 Z M 128.894531 90.429688 L 104 90.429688 C 101.125 90.429688 98.792969 92.765625 98.792969 95.640625 L 98.792969 122.449219 C 98.792969 125.324219 101.125 127.65625 104 127.65625 L 128.894531 127.65625 C 131.769531 127.65625 134.101562 125.324219 134.101562 122.449219 L 134.101562 95.640625 C 134.101562 92.765625 131.769531 90.429688 128.894531 90.429688 Z M 123.683594 117.238281 L 109.210938 117.238281 L 109.210938 100.847656 L 123.683594 100.847656 Z M 128.894531 197.65625 L 104 197.65625 C 101.125 197.65625 98.792969 199.988281 98.792969 202.863281 L 98.792969 229.671875 C 98.792969 232.550781 101.125 234.882812 104 234.882812 L 128.894531 234.882812 C 131.769531 234.882812 134.101562 232.550781 134.101562 229.671875 L 134.101562 202.863281 C 134.101562 199.988281 131.769531 197.65625 128.894531 197.65625 Z M 123.683594 224.464844 L 109.210938 224.464844 L 109.210938 208.074219 L 123.683594 208.074219 Z M 128.894531 144.046875 L 104 144.046875 C 101.125 144.046875 98.792969 146.378906 98.792969 149.257812 L 98.792969 176.066406 C 98.792969 178.941406 101.125 181.273438 104 181.273438 L 128.894531 181.273438 C 131.769531 181.273438 134.101562 178.941406 134.101562 176.066406 L 134.101562 149.257812 C 134.101562 146.378906 131.769531 144.046875 128.894531 144.046875 Z M 123.683594 170.847656 L 109.210938 170.847656 L 109.210938 154.457031 L 123.683594 154.457031 Z M 179.296875 197.65625 L 154.40625 197.65625 C 151.53125 197.65625 149.199219 199.988281 149.199219 202.863281 L 149.199219 229.671875 C 149.199219 232.550781 151.53125 234.882812 154.40625 234.882812 L 179.296875 234.882812 C 182.175781 234.882812 184.507812 232.550781 184.507812 229.671875 L 184.507812 202.863281 C 184.507812 199.988281 182.175781 197.65625 179.296875 197.65625 Z M 174.089844 224.464844 L 159.617188 224.464844 L 159.617188 208.074219 L 174.089844 208.074219 Z M 179.296875 90.429688 L 154.40625 90.429688 C 151.53125 90.429688 149.199219 92.765625 149.199219 95.640625 L 149.199219 122.449219 C 149.199219 125.324219 151.53125 127.65625 154.40625 127.65625 L 179.296875 127.65625 C 182.175781 127.65625 184.507812 125.324219 184.507812 122.449219 L 184.507812 95.640625 C 184.507812 92.765625 182.175781 90.429688 179.296875 90.429688 Z M 174.089844 117.238281 L 159.617188 117.238281 L 159.617188 100.847656 L 174.089844 100.847656 Z M 179.296875 36.820312 L 154.40625 36.820312 C 151.53125 36.820312 149.199219 39.15625 149.199219 42.03125 L 149.199219 68.839844 C 149.199219 71.714844 151.53125 74.050781 154.40625 74.050781 L 179.296875 74.050781 C 182.175781 74.050781 184.507812 71.714844 184.507812 68.839844 L 184.507812 42.03125 C 184.507812 39.15625 182.175781 36.820312 179.296875 36.820312 Z M 174.089844 63.628906 L 159.617188 63.628906 L 159.617188 47.242188 L 174.089844 47.242188 Z M 179.296875 251.265625 L 154.40625 251.265625 C 151.53125 251.265625 149.199219 253.597656 149.199219 256.472656 L 149.199219 283.28125 C 149.199219 286.160156 151.53125 288.492188 154.40625 288.492188 L 179.296875 288.492188 C 182.175781 288.492188 184.507812 286.160156 184.507812 283.28125 L 184.507812 256.472656 C 184.507812 253.597656 182.175781 251.265625 179.296875 251.265625 Z M 174.089844 278.074219 L 159.617188 278.074219 L 159.617188 261.683594 L 174.089844 261.683594 Z M 316.402344 190.378906 L 291.511719 190.378906 C 288.632812 190.378906 286.300781 192.714844 286.300781 195.589844 L 286.300781 222.398438 C 286.300781 225.273438 288.632812 227.609375 291.511719 227.609375 L 316.402344 227.609375 C 319.277344 227.609375 321.613281 225.273438 321.613281 222.398438 L 321.613281 195.589844 C 321.613281 192.714844 319.277344 190.378906 316.402344 190.378906 Z M 311.191406 217.1875 L 296.722656 217.1875 L 296.722656 200.800781 L 311.191406 200.800781 Z M 316.402344 136.773438 L 291.511719 136.773438 C 288.632812 136.773438 286.300781 139.105469 286.300781 141.980469 L 286.300781 168.789062 C 286.300781 171.664062 288.632812 174 291.511719 174 L 316.402344 174 C 319.277344 174 321.613281 171.664062 321.613281 168.789062 L 321.613281 141.980469 C 321.613281 139.105469 319.277344 136.773438 316.402344 136.773438 Z M 311.191406 163.570312 L 296.722656 163.570312 L 296.722656 147.183594 L 311.191406 147.183594 Z M 316.402344 243.988281 L 291.511719 243.988281 C 288.632812 243.988281 286.300781 246.324219 286.300781 249.199219 L 286.300781 276.007812 C 286.300781 278.882812 288.632812 281.214844 291.511719 281.214844 L 316.402344 281.214844 C 319.277344 281.214844 321.613281 278.882812 321.613281 276.007812 L 321.613281 249.199219 C 321.613281 246.324219 319.277344 243.988281 316.402344 243.988281 Z M 311.191406 270.796875 L 296.722656 270.796875 L 296.722656 254.40625 L 311.191406 254.40625 Z M 266.003906 243.988281 L 241.113281 243.988281 C 238.238281 243.988281 235.902344 246.324219 235.902344 249.199219 L 235.902344 276.007812 C 235.902344 278.882812 238.238281 281.214844 241.113281 281.214844 L 266.003906 281.214844 C 268.878906 281.214844 271.214844 278.882812 271.214844 276.007812 L 271.214844 249.199219 C 271.214844 246.324219 268.878906 243.988281 266.003906 243.988281 Z M 260.792969 270.796875 L 246.324219 270.796875 L 246.324219 254.40625 L 260.792969 254.40625 Z M 266.003906 190.378906 L 241.113281 190.378906 C 238.238281 190.378906 235.902344 192.714844 235.902344 195.589844 L 235.902344 222.398438 C 235.902344 225.273438 238.238281 227.609375 241.113281 227.609375 L 266.003906 227.609375 C 268.878906 227.609375 271.214844 225.273438 271.214844 222.398438 L 271.214844 195.589844 C 271.214844 192.714844 268.878906 190.378906 266.003906 190.378906 Z M 260.792969 217.1875 L 246.324219 217.1875 L 246.324219 200.800781 L 260.792969 200.800781 Z M 266.003906 136.773438 L 241.113281 136.773438 C 238.238281 136.773438 235.902344 139.105469 235.902344 141.980469 L 235.902344 168.789062 C 235.902344 171.664062 238.238281 174 241.113281 174 L 266.003906 174 C 268.878906 174 271.214844 171.664062 271.214844 168.789062 L 271.214844 141.980469 C 271.214844 139.105469 268.878906 136.773438 266.003906 136.773438 Z M 260.792969 163.570312 L 246.324219 163.570312 L 246.324219 147.183594 L 260.792969 147.183594 Z M 260.792969 163.570312 " fill-opacity="1" fill-rule="nonzero"/></g></svg>