<svg xmlns="http://www.w3.org/2000/svg" xmlns:xlink="http://www.w3.org/1999/xlink" width="561" zoomAndPan="magnify" viewBox="0 0 420.75 326.250004" height="435" preserveAspectRatio="xMidYMid meet" version="1.0"><defs><clipPath id="f368acbebb"><path d="M 90.035156 7.070312 L 330.378906 7.070312 L 330.378906 318.539062 L 90.035156 318.539062 Z M 90.035156 7.070312 " clip-rule="nonzero"/></clipPath></defs><g clip-path="url(#f368acbebb)"><path fill="#f2a536" d="M 323.308594 35.425781 L 273.828125 35.425781 L 273.828125 28.347656 C 273.828125 24.433594 270.660156 21.273438 266.757812 21.273438 L 234.601562 21.273438 C 229.609375 12.640625 220.351562 7.117188 210.207031 7.117188 C 200.0625 7.117188 190.804688 12.640625 185.8125 21.273438 L 153.65625 21.273438 C 149.753906 21.273438 146.585938 24.433594 146.585938 28.347656 L 146.585938 35.425781 L 97.105469 35.425781 C 93.203125 35.425781 90.035156 38.589844 90.035156 42.503906 L 90.035156 311.414062 C 90.035156 315.328125 93.203125 318.488281 97.105469 318.488281 L 323.308594 318.488281 C 327.210938 318.488281 330.378906 315.328125 330.378906 311.414062 L 330.378906 42.503906 C 330.378906 38.589844 327.210938 35.425781 323.308594 35.425781 Z M 160.726562 35.425781 L 190.300781 35.425781 C 193.292969 35.425781 195.957031 33.535156 196.960938 30.71875 C 200.925781 18.355469 219.496094 18.347656 223.460938 30.71875 C 224.457031 33.535156 227.128906 35.425781 230.113281 35.425781 L 259.6875 35.425781 L 259.6875 49.578125 L 160.726562 49.578125 Z M 316.238281 304.335938 L 104.175781 304.335938 L 104.175781 49.578125 L 146.585938 49.578125 L 146.585938 56.65625 C 146.585938 60.570312 149.753906 63.730469 153.65625 63.730469 L 266.757812 63.730469 C 270.660156 63.730469 273.828125 60.570312 273.828125 56.65625 L 273.828125 49.578125 L 316.238281 49.578125 Z M 316.238281 304.335938 " fill-opacity="1" fill-rule="nonzero"/></g><path fill="#f2a536" d="M 153.65625 219.417969 C 125.691406 220.152344 125.699219 261.148438 153.65625 261.878906 C 181.621094 261.140625 181.613281 220.144531 153.65625 219.417969 Z M 153.65625 247.722656 C 144.417969 247.675781 144.417969 233.613281 153.65625 233.570312 C 162.894531 233.621094 162.894531 247.679688 153.65625 247.722656 Z M 153.65625 247.722656 " fill-opacity="1" fill-rule="nonzero"/><path fill="#f2a536" d="M 278.824219 221.492188 C 276.058594 218.722656 271.59375 218.722656 268.828125 221.492188 L 263.222656 227.101562 L 257.617188 221.492188 C 254.855469 218.722656 250.386719 218.722656 247.621094 221.492188 C 244.859375 224.257812 244.859375 228.730469 247.621094 231.496094 L 253.226562 237.109375 L 247.621094 242.71875 C 244.859375 245.488281 244.859375 249.960938 247.621094 252.726562 C 250.386719 255.492188 254.855469 255.492188 257.617188 252.726562 L 263.222656 247.113281 L 268.828125 252.726562 C 271.59375 255.492188 276.058594 255.492188 278.824219 252.726562 C 281.589844 249.960938 281.589844 245.488281 278.824219 242.71875 L 273.21875 237.109375 L 278.824219 231.496094 C 281.589844 228.730469 281.589844 224.257812 278.824219 221.492188 Z M 278.824219 221.492188 " fill-opacity="1" fill-rule="nonzero"/><path fill="#f2a536" d="M 179.859375 136.570312 C 177.097656 133.804688 172.628906 133.804688 169.863281 136.570312 L 164.257812 142.183594 L 158.652344 136.570312 C 155.890625 133.804688 151.421875 133.804688 148.660156 136.570312 C 145.894531 139.339844 145.894531 143.8125 148.660156 146.578125 L 154.265625 152.191406 L 148.660156 157.800781 C 145.894531 160.566406 145.894531 165.039062 148.660156 167.808594 C 151.421875 170.574219 155.890625 170.574219 158.652344 167.808594 L 164.257812 162.195312 L 169.863281 167.808594 C 172.628906 170.574219 177.097656 170.574219 179.859375 167.808594 C 182.625 165.039062 182.625 160.566406 179.859375 157.800781 L 174.253906 152.191406 L 179.859375 146.578125 C 182.625 143.8125 182.625 139.339844 179.859375 136.570312 Z M 179.859375 136.570312 " fill-opacity="1" fill-rule="nonzero"/><path fill="#f2a536" d="M 271.761719 108.273438 C 269.132812 105.539062 264.382812 105.535156 261.761719 108.273438 C 261.761719 108.273438 247.628906 122.417969 247.628906 122.417969 C 241.117188 129.007812 251.066406 138.929688 257.625 132.425781 C 257.625 132.425781 259.695312 130.351562 259.695312 130.351562 C 261.554688 173.398438 231.484375 211.691406 189 219.304688 C 179.753906 219.804688 179.691406 233.324219 189.007812 233.570312 C 239.289062 226.175781 275.8125 181.019531 273.828125 130.351562 C 273.828125 130.351562 275.898438 132.425781 275.898438 132.425781 C 282.4375 138.949219 292.410156 128.976562 285.894531 122.417969 C 285.894531 122.417969 271.761719 108.273438 271.761719 108.273438 Z M 271.761719 108.273438 " fill-opacity="1" fill-rule="nonzero"/></svg>